solid OpenSCAD_Model
  facet normal -0.525524 -0.525522 -0.669067
    outer loop
      vertex 138.235 -149.133 -5.59865
      vertex -4.50672 -4.50672 -7.07845
      vertex 139.177 -148.191 -7.07845
    endloop
  endfacet
  facet normal -0.525484 -0.525483 -0.66913
    outer loop
      vertex -4.50672 -4.50672 -7.07845
      vertex 138.235 -149.133 -5.59865
      vertex -5.44888 -5.44888 -5.59865
    endloop
  endfacet
  facet normal 0.672498 0.672498 -0.309018
    outer loop
      vertex 150.272 -137.096 -1.98036
      vertex 6.1529 6.1529 -3.87417
      vertex 6.58801 6.58801 -1.98036
    endloop
  endfacet
  facet normal 0.672514 0.672515 -0.308947
    outer loop
      vertex 6.1529 6.1529 -3.87417
      vertex 150.272 -137.096 -1.98036
      vertex 149.837 -137.531 -3.87417
    endloop
  endfacet
  facet normal 0.415657 0.415659 -0.808985
    outer loop
      vertex 147.052 -140.316 -8.24889
      vertex 4.50672 4.50672 -7.07845
      vertex 148.191 -139.177 -7.07845
    endloop
  endfacet
  facet normal 0.415628 0.41563 -0.809015
    outer loop
      vertex 4.50672 4.50672 -7.07845
      vertex 147.052 -140.316 -8.24889
      vertex 3.3676 3.3676 -8.24889
    endloop
  endfacet
  facet normal 0.525523 0.525524 -0.669067
    outer loop
      vertex 148.191 -139.177 -7.07845
      vertex 5.44888 5.44888 -5.59865
      vertex 149.133 -138.235 -5.59865
    endloop
  endfacet
  facet normal 0.525482 0.525484 -0.66913
    outer loop
      vertex 5.44888 5.44888 -5.59865
      vertex 148.191 -139.177 -7.07845
      vertex 4.50672 4.50672 -7.07845
    endloop
  endfacet
  facet normal 0.703234 0.703232 -0.104528
    outer loop
      vertex 150.419 -136.949 0
      vertex 6.58801 6.58801 -1.98036
      vertex 6.73519 6.73519 0
    endloop
  endfacet
  facet normal 0.703243 0.703243 -0.104402
    outer loop
      vertex 6.58801 6.58801 -1.98036
      vertex 150.419 -136.949 0
      vertex 150.272 -137.096 -1.98036
    endloop
  endfacet
  facet normal -0.287476 -0.287477 -0.913627
    outer loop
      vertex 140.316 -147.052 -8.24889
      vertex -2.08129 -2.08129 -9.05881
      vertex 141.603 -145.765 -9.05881
    endloop
  endfacet
  facet normal -0.287606 -0.287605 -0.913546
    outer loop
      vertex -2.08129 -2.08129 -9.05881
      vertex 140.316 -147.052 -8.24889
      vertex -3.3676 -3.3676 -8.24889
    endloop
  endfacet
  facet normal -0.415659 -0.415657 -0.808985
    outer loop
      vertex 139.177 -148.191 -7.07845
      vertex -3.3676 -3.3676 -8.24889
      vertex 140.316 -147.052 -8.24889
    endloop
  endfacet
  facet normal -0.41563 -0.415628 -0.809015
    outer loop
      vertex -3.3676 -3.3676 -8.24889
      vertex 139.177 -148.191 -7.07845
      vertex -4.50672 -4.50672 -7.07845
    endloop
  endfacet
  facet normal 0.287476 0.287477 -0.913627
    outer loop
      vertex 145.765 -141.603 -9.05881
      vertex 3.3676 3.3676 -8.24889
      vertex 147.052 -140.316 -8.24889
    endloop
  endfacet
  facet normal 0.287606 0.287605 -0.913546
    outer loop
      vertex 3.3676 3.3676 -8.24889
      vertex 145.765 -141.603 -9.05881
      vertex 2.08129 2.08129 -9.05881
    endloop
  endfacet
  facet normal 0.147044 0.147044 -0.978139
    outer loop
      vertex 144.388 -142.98 -9.47282
      vertex 2.08129 2.08129 -9.05881
      vertex 145.765 -141.603 -9.05881
    endloop
  endfacet
  facet normal 0.147016 0.147016 -0.978147
    outer loop
      vertex 2.08129 2.08129 -9.05881
      vertex 144.388 -142.98 -9.47282
      vertex 0.704019 0.704019 -9.47282
    endloop
  endfacet
  facet normal -0.707107 0.707107 0
    outer loop
      vertex -6.58801 -6.58801 -1.98036
      vertex 6.58801 6.58801 -1.98036
      vertex 6.1529 6.1529 -3.87417
    endloop
  endfacet
  facet normal -0.707107 0.707107 0
    outer loop
      vertex -6.1529 -6.1529 -3.87417
      vertex 6.1529 6.1529 -3.87417
      vertex 5.44888 5.44888 -5.59865
    endloop
  endfacet
  facet normal -0.707107 0.707107 0
    outer loop
      vertex -5.44888 -5.44888 -5.59865
      vertex 5.44888 5.44888 -5.59865
      vertex 4.50672 4.50672 -7.07845
    endloop
  endfacet
  facet normal -0.707107 0.707107 0
    outer loop
      vertex -4.50672 -4.50672 -7.07845
      vertex 4.50672 4.50672 -7.07845
      vertex 3.3676 3.3676 -8.24889
    endloop
  endfacet
  facet normal -0.707107 0.707107 0
    outer loop
      vertex -3.3676 -3.3676 -8.24889
      vertex 3.3676 3.3676 -8.24889
      vertex 2.08129 2.08129 -9.05881
    endloop
  endfacet
  facet normal -0.707107 0.707107 0
    outer loop
      vertex -2.08129 -2.08129 -9.05881
      vertex 2.08129 2.08129 -9.05881
      vertex 0.704019 0.704019 -9.47282
    endloop
  endfacet
  facet normal -0.707107 0.707107 0
    outer loop
      vertex -2.08129 -2.08129 -9.05881
      vertex 0.704019 0.704019 -9.47282
      vertex -0.704019 -0.704019 -9.47282
    endloop
  endfacet
  facet normal -0.707107 0.707107 0
    outer loop
      vertex 2.08129 2.08129 -9.05881
      vertex -2.08129 -2.08129 -9.05881
      vertex -3.3676 -3.3676 -8.24889
    endloop
  endfacet
  facet normal -0.707107 0.707107 0
    outer loop
      vertex 3.3676 3.3676 -8.24889
      vertex -3.3676 -3.3676 -8.24889
      vertex -4.50672 -4.50672 -7.07845
    endloop
  endfacet
  facet normal -0.707107 0.707107 0
    outer loop
      vertex 4.50672 4.50672 -7.07845
      vertex -4.50672 -4.50672 -7.07845
      vertex -5.44888 -5.44888 -5.59865
    endloop
  endfacet
  facet normal -0.707107 0.707107 0
    outer loop
      vertex 5.44888 5.44888 -5.59865
      vertex -5.44888 -5.44888 -5.59865
      vertex -6.1529 -6.1529 -3.87417
    endloop
  endfacet
  facet normal -0.707107 0.707107 0
    outer loop
      vertex -6.58801 -6.58801 -1.98036
      vertex 6.1529 6.1529 -3.87417
      vertex -6.1529 -6.1529 -3.87417
    endloop
  endfacet
  facet normal -0.707107 0.707107 0
    outer loop
      vertex 6.58801 6.58801 -1.98036
      vertex -6.58801 -6.58801 -1.98036
      vertex 6.73519 6.73519 0
    endloop
  endfacet
  facet normal -0.707107 0.707107 0
    outer loop
      vertex 6.73519 6.73519 0
      vertex -6.58801 -6.58801 -1.98036
      vertex -6.73519 -6.73519 0
    endloop
  endfacet
  facet normal -0.672499 -0.672498 -0.309018
    outer loop
      vertex 137.531 -149.837 -3.87417
      vertex -6.58801 -6.58801 -1.98036
      vertex -6.1529 -6.1529 -3.87417
    endloop
  endfacet
  facet normal -0.672514 -0.672515 -0.308947
    outer loop
      vertex -6.58801 -6.58801 -1.98036
      vertex 137.531 -149.837 -3.87417
      vertex 137.096 -150.272 -1.98036
    endloop
  endfacet
  facet normal 0.707107 -0.707107 -9.08336e-15
    outer loop
      vertex 149.005 -138.363 0
      vertex 150.272 -137.096 -1.98036
      vertex 150.419 -136.949 0
    endloop
  endfacet
  facet normal 0.707107 -0.707107 -3.16128e-15
    outer loop
      vertex 150.272 -137.096 -1.98036
      vertex 148.824 -138.544 -1.94761
      vertex 149.837 -137.531 -3.87417
    endloop
  endfacet
  facet normal 0.707107 -0.707107 9.00032e-15
    outer loop
      vertex 150.272 -137.096 -1.98036
      vertex 149.005 -138.363 0
      vertex 148.824 -138.544 -1.94761
    endloop
  endfacet
  facet normal 0.707107 -0.707107 -1.08569e-14
    outer loop
      vertex 148.292 -139.076 -3.7625
      vertex 149.837 -137.531 -3.87417
      vertex 148.824 -138.544 -1.94761
    endloop
  endfacet
  facet normal 0.707107 -0.707107 1.13338e-14
    outer loop
      vertex 149.837 -137.531 -3.87417
      vertex 148.292 -139.076 -3.7625
      vertex 149.133 -138.235 -5.59865
    endloop
  endfacet
  facet normal 0.707333 -0.70688 0.0002077
    outer loop
      vertex 147.447 -139.922 -5.32098
      vertex 149.133 -138.235 -5.59865
      vertex 148.292 -139.076 -3.7625
    endloop
  endfacet
  facet normal 0.707296 -0.706917 -0.000241579
    outer loop
      vertex 149.133 -138.235 -5.59865
      vertex 147.447 -139.922 -5.32098
      vertex 148.191 -139.177 -7.07845
    endloop
  endfacet
  facet normal 0.707256 -0.706957 -0.000275634
    outer loop
      vertex 146.345 -141.024 -6.51684
      vertex 148.191 -139.177 -7.07845
      vertex 147.447 -139.922 -5.32098
    endloop
  endfacet
  facet normal 0.707254 -0.706959 -0.000287549
    outer loop
      vertex 148.191 -139.177 -7.07845
      vertex 146.345 -141.024 -6.51684
      vertex 147.052 -140.316 -8.24889
    endloop
  endfacet
  facet normal 0.706981 -0.707232 -0.000511026
    outer loop
      vertex 145.061 -142.307 -7.26859
      vertex 147.052 -140.316 -8.24889
      vertex 146.345 -141.024 -6.51684
    endloop
  endfacet
  facet normal 0.707107 -0.707107 0
    outer loop
      vertex 147.052 -140.316 -8.24889
      vertex 145.061 -142.307 -7.26859
      vertex 145.765 -141.603 -9.05881
    endloop
  endfacet
  facet normal 0.707107 -0.707107 0
    outer loop
      vertex 145.061 -142.307 -7.26859
      vertex 144.388 -142.98 -9.47282
      vertex 145.765 -141.603 -9.05881
    endloop
  endfacet
  facet normal 0.707107 -0.707107 0
    outer loop
      vertex 143.684 -143.684 -7.525
      vertex 144.388 -142.98 -9.47282
      vertex 145.061 -142.307 -7.26859
    endloop
  endfacet
  facet normal 0.707107 -0.707107 0
    outer loop
      vertex 143.684 -143.684 -7.525
      vertex 142.98 -144.388 -9.47282
      vertex 144.388 -142.98 -9.47282
    endloop
  endfacet
  facet normal 0.707107 -0.707107 0
    outer loop
      vertex 142.307 -145.061 -7.26859
      vertex 142.98 -144.388 -9.47282
      vertex 143.684 -143.684 -7.525
    endloop
  endfacet
  facet normal 0.707107 -0.707107 0
    outer loop
      vertex 142.307 -145.061 -7.26859
      vertex 141.603 -145.765 -9.05881
      vertex 142.98 -144.388 -9.47282
    endloop
  endfacet
  facet normal 0.707232 -0.706981 -0.000511026
    outer loop
      vertex 140.316 -147.052 -8.24889
      vertex 142.307 -145.061 -7.26859
      vertex 141.024 -146.345 -6.51684
    endloop
  endfacet
  facet normal 0.707107 -0.707107 0
    outer loop
      vertex 142.307 -145.061 -7.26859
      vertex 140.316 -147.052 -8.24889
      vertex 141.603 -145.765 -9.05881
    endloop
  endfacet
  facet normal 0.706957 -0.707256 -0.000275634
    outer loop
      vertex 139.177 -148.191 -7.07845
      vertex 141.024 -146.345 -6.51684
      vertex 139.922 -147.447 -5.32098
    endloop
  endfacet
  facet normal 0.706959 -0.707254 -0.000287549
    outer loop
      vertex 141.024 -146.345 -6.51684
      vertex 139.177 -148.191 -7.07845
      vertex 140.316 -147.052 -8.24889
    endloop
  endfacet
  facet normal 0.70688 -0.707333 0.0002077
    outer loop
      vertex 138.235 -149.133 -5.59865
      vertex 139.922 -147.447 -5.32098
      vertex 139.076 -148.292 -3.7625
    endloop
  endfacet
  facet normal 0.707107 -0.707107 -1.08569e-14
    outer loop
      vertex 137.531 -149.837 -3.87417
      vertex 139.076 -148.292 -3.7625
      vertex 138.544 -148.824 -1.94761
    endloop
  endfacet
  facet normal 0.706917 -0.707296 -0.000241579
    outer loop
      vertex 139.922 -147.447 -5.32098
      vertex 138.235 -149.133 -5.59865
      vertex 139.177 -148.191 -7.07845
    endloop
  endfacet
  facet normal 0.707107 -0.707107 9.00032e-15
    outer loop
      vertex 137.096 -150.272 -1.98036
      vertex 138.544 -148.824 -1.94761
      vertex 138.363 -149.005 0
    endloop
  endfacet
  facet normal 0.707107 -0.707107 1.13338e-14
    outer loop
      vertex 139.076 -148.292 -3.7625
      vertex 137.531 -149.837 -3.87417
      vertex 138.235 -149.133 -5.59865
    endloop
  endfacet
  facet normal 0.707107 -0.707107 -3.18976e-15
    outer loop
      vertex 138.544 -148.824 -1.94761
      vertex 137.096 -150.272 -1.98036
      vertex 137.531 -149.837 -3.87417
    endloop
  endfacet
  facet normal 0.707107 -0.707107 -9.09037e-15
    outer loop
      vertex 137.096 -150.272 -1.98036
      vertex 138.363 -149.005 0
      vertex 136.949 -150.419 0
    endloop
  endfacet
  facet normal -0.147044 -0.147044 -0.978139
    outer loop
      vertex 141.603 -145.765 -9.05881
      vertex -0.704019 -0.704019 -9.47282
      vertex 142.98 -144.388 -9.47282
    endloop
  endfacet
  facet normal -0.147016 -0.147017 -0.978147
    outer loop
      vertex -0.704019 -0.704019 -9.47282
      vertex 141.603 -145.765 -9.05881
      vertex -2.08129 -2.08129 -9.05881
    endloop
  endfacet
  facet normal -0.703233 -0.703233 -0.104528
    outer loop
      vertex 137.096 -150.272 -1.98036
      vertex -6.73519 -6.73519 0
      vertex -6.58801 -6.58801 -1.98036
    endloop
  endfacet
  facet normal -0.703242 -0.703244 -0.104402
    outer loop
      vertex -6.73519 -6.73519 0
      vertex 137.096 -150.272 -1.98036
      vertex 136.949 -150.419 0
    endloop
  endfacet
  facet normal -0.612372 -0.612371 -0.500002
    outer loop
      vertex 138.235 -149.133 -5.59865
      vertex -6.1529 -6.1529 -3.87417
      vertex -5.44888 -5.44888 -5.59865
    endloop
  endfacet
  facet normal -0.612376 -0.612375 -0.499991
    outer loop
      vertex -6.1529 -6.1529 -3.87417
      vertex 138.235 -149.133 -5.59865
      vertex 137.531 -149.837 -3.87417
    endloop
  endfacet
  facet normal 0.612371 0.612372 -0.500002
    outer loop
      vertex 149.837 -137.531 -3.87417
      vertex 5.44888 5.44888 -5.59865
      vertex 6.1529 6.1529 -3.87417
    endloop
  endfacet
  facet normal 0.612375 0.612376 -0.499991
    outer loop
      vertex 5.44888 5.44888 -5.59865
      vertex 149.837 -137.531 -3.87417
      vertex 149.133 -138.235 -5.59865
    endloop
  endfacet
  facet normal 0 0 -1
    outer loop
      vertex 142.98 -144.388 -9.47282
      vertex 0.704019 0.704019 -9.47282
      vertex 144.388 -142.98 -9.47282
    endloop
  endfacet
  facet normal 0 -0 -1
    outer loop
      vertex 0.704019 0.704019 -9.47282
      vertex 142.98 -144.388 -9.47282
      vertex -0.704019 -0.704019 -9.47282
    endloop
  endfacet
  facet normal -0.430461 -0.430461 0.793351
    outer loop
      vertex 129.663 -122.138 -5.32098
      vertex 146.345 -141.024 -6.51684
      vertex 147.447 -139.922 -5.32098
    endloop
  endfacet
  facet normal -0.430461 -0.430461 0.793351
    outer loop
      vertex 146.345 -141.024 -6.51684
      vertex 129.663 -122.138 -5.32098
      vertex 128.561 -123.24 -6.51684
    endloop
  endfacet
  facet normal -0.430461 -0.430461 0.793351
    outer loop
      vertex 5.17671 2.34829 -5.32098
      vertex 20.4442 -15.1232 -6.51684
      vertex 21.5462 -14.0212 -5.32098
    endloop
  endfacet
  facet normal -0.430459 -0.430459 0.793354
    outer loop
      vertex 20.4442 -15.1232 -6.51684
      vertex 5.17671 2.34829 -5.32098
      vertex 4.0747 1.24628 -6.51684
    endloop
  endfacet
  facet normal -0.430461 -0.430461 0.793351
    outer loop
      vertex 22.9604 -15.4354 -5.32098
      vertex 38.228 -32.907 -6.51684
      vertex 39.33 -31.805 -5.32098
    endloop
  endfacet
  facet normal -0.430448 -0.43045 0.793364
    outer loop
      vertex 38.228 -32.907 -6.51684
      vertex 22.9604 -15.4354 -5.32098
      vertex 21.8584 -16.5375 -6.51684
    endloop
  endfacet
  facet normal -0.430461 -0.430461 0.793351
    outer loop
      vertex 40.7442 -33.2192 -5.32098
      vertex 56.0117 -50.6907 -6.51684
      vertex 57.1137 -49.5887 -5.32098
    endloop
  endfacet
  facet normal -0.430461 -0.430461 0.793351
    outer loop
      vertex 56.0117 -50.6907 -6.51684
      vertex 40.7442 -33.2192 -5.32098
      vertex 39.6422 -34.3212 -6.51684
    endloop
  endfacet
  facet normal -0.430461 -0.430461 0.793351
    outer loop
      vertex 58.5279 -51.0029 -5.32098
      vertex 73.7954 -68.4744 -6.51684
      vertex 74.8974 -67.3724 -5.32098
    endloop
  endfacet
  facet normal -0.430461 -0.430461 0.793351
    outer loop
      vertex 73.7954 -68.4744 -6.51684
      vertex 58.5279 -51.0029 -5.32098
      vertex 57.4259 -52.1049 -6.51684
    endloop
  endfacet
  facet normal -0.430461 -0.430461 0.793351
    outer loop
      vertex 76.3117 -68.7867 -5.32098
      vertex 91.5792 -86.2582 -6.51684
      vertex 92.6812 -85.1562 -5.32098
    endloop
  endfacet
  facet normal -0.430448 -0.43045 0.793364
    outer loop
      vertex 91.5792 -86.2582 -6.51684
      vertex 76.3117 -68.7867 -5.32098
      vertex 75.2096 -69.8887 -6.51684
    endloop
  endfacet
  facet normal -0.430461 -0.430461 0.793351
    outer loop
      vertex 94.0954 -86.5704 -5.32098
      vertex 109.363 -104.042 -6.51684
      vertex 110.465 -102.94 -5.32098
    endloop
  endfacet
  facet normal -0.430461 -0.430461 0.793351
    outer loop
      vertex 109.363 -104.042 -6.51684
      vertex 94.0954 -86.5704 -5.32098
      vertex 92.9934 -87.6724 -6.51684
    endloop
  endfacet
  facet normal -0.430461 -0.430461 0.793351
    outer loop
      vertex 111.879 -104.354 -5.32098
      vertex 127.147 -121.826 -6.51684
      vertex 128.249 -120.724 -5.32098
    endloop
  endfacet
  facet normal -0.430461 -0.430461 0.793351
    outer loop
      vertex 127.147 -121.826 -6.51684
      vertex 111.879 -104.354 -5.32098
      vertex 110.777 -105.456 -6.51684
    endloop
  endfacet
  facet normal 0.0923078 0.0923078 0.991443
    outer loop
      vertex 125.9 -125.9 -7.525
      vertex 142.307 -145.061 -7.26859
      vertex 143.684 -143.684 -7.525
    endloop
  endfacet
  facet normal 0.0922723 0.0922775 0.991449
    outer loop
      vertex 142.307 -145.061 -7.26859
      vertex 125.9 -125.9 -7.525
      vertex 124.523 -127.278 -7.26859
    endloop
  endfacet
  facet normal 0.092298 0.092298 0.991444
    outer loop
      vertex 1.41421 -1.41421 -7.525
      vertex 16.4066 -19.1609 -7.26859
      vertex 17.7837 -17.7837 -7.525
    endloop
  endfacet
  facet normal 0.0922967 0.0922969 0.991445
    outer loop
      vertex 16.4066 -19.1609 -7.26859
      vertex 1.41421 -1.41421 -7.525
      vertex 0.0370434 -2.79138 -7.26859
    endloop
  endfacet
  facet normal 0.092298 0.092298 0.991444
    outer loop
      vertex 19.1979 -19.1979 -7.525
      vertex 34.1903 -36.9446 -7.26859
      vertex 35.5675 -35.5675 -7.525
    endloop
  endfacet
  facet normal 0.092298 0.092298 0.991444
    outer loop
      vertex 34.1903 -36.9446 -7.26859
      vertex 19.1979 -19.1979 -7.525
      vertex 17.8208 -20.5751 -7.26859
    endloop
  endfacet
  facet normal 0.0922947 0.0922947 0.991445
    outer loop
      vertex 36.9817 -36.9817 -7.525
      vertex 51.974 -54.7284 -7.26859
      vertex 53.3512 -53.3512 -7.525
    endloop
  endfacet
  facet normal 0.0922947 0.0922947 0.991445
    outer loop
      vertex 51.974 -54.7284 -7.26859
      vertex 36.9817 -36.9817 -7.525
      vertex 35.6045 -38.3589 -7.26859
    endloop
  endfacet
  facet normal 0.092298 0.092298 0.991444
    outer loop
      vertex 54.7654 -54.7654 -7.525
      vertex 69.7578 -72.5121 -7.26859
      vertex 71.1349 -71.1349 -7.525
    endloop
  endfacet
  facet normal 0.0922944 0.092295 0.991445
    outer loop
      vertex 69.7578 -72.5121 -7.26859
      vertex 54.7654 -54.7654 -7.525
      vertex 53.3882 -56.1426 -7.26859
    endloop
  endfacet
  facet normal 0.092298 0.092298 0.991444
    outer loop
      vertex 72.5492 -72.5492 -7.525
      vertex 87.5415 -90.2958 -7.26859
      vertex 88.9187 -88.9187 -7.525
    endloop
  endfacet
  facet normal 0.092298 0.092298 0.991444
    outer loop
      vertex 87.5415 -90.2958 -7.26859
      vertex 72.5492 -72.5492 -7.525
      vertex 71.172 -73.9263 -7.26859
    endloop
  endfacet
  facet normal 0.0922749 0.0922749 0.991449
    outer loop
      vertex 90.3329 -90.3329 -7.525
      vertex 105.325 -108.08 -7.26859
      vertex 106.702 -106.702 -7.525
    endloop
  endfacet
  facet normal 0.0922964 0.092293 0.991445
    outer loop
      vertex 105.325 -108.08 -7.26859
      vertex 90.3329 -90.3329 -7.525
      vertex 88.9557 -91.7101 -7.26859
    endloop
  endfacet
  facet normal 0.0923078 0.0923078 0.991443
    outer loop
      vertex 108.117 -108.117 -7.525
      vertex 123.109 -125.863 -7.26859
      vertex 124.486 -124.486 -7.525
    endloop
  endfacet
  facet normal 0.0922721 0.0922777 0.991449
    outer loop
      vertex 123.109 -125.863 -7.26859
      vertex 108.117 -108.117 -7.525
      vertex 106.739 -109.494 -7.26859
    endloop
  endfacet
  facet normal 0.430461 0.430461 0.793351
    outer loop
      vertex 123.24 -128.561 -6.51684
      vertex 139.922 -147.447 -5.32098
      vertex 141.024 -146.345 -6.51684
    endloop
  endfacet
  facet normal 0.430461 0.430461 0.793351
    outer loop
      vertex 139.922 -147.447 -5.32098
      vertex 123.24 -128.561 -6.51684
      vertex 122.138 -129.663 -5.32098
    endloop
  endfacet
  facet normal 0.430462 0.430461 0.793351
    outer loop
      vertex -1.24628 -4.0747 -6.51684
      vertex 14.0212 -21.5462 -5.32098
      vertex 15.1232 -20.4442 -6.51684
    endloop
  endfacet
  facet normal 0.430459 0.430459 0.793354
    outer loop
      vertex 14.0212 -21.5462 -5.32098
      vertex -1.24628 -4.0747 -6.51684
      vertex -2.34829 -5.17671 -5.32098
    endloop
  endfacet
  facet normal 0.430463 0.43046 0.793351
    outer loop
      vertex 16.5375 -21.8584 -6.51684
      vertex 31.805 -39.33 -5.32098
      vertex 32.907 -38.228 -6.51684
    endloop
  endfacet
  facet normal 0.430449 0.430449 0.793364
    outer loop
      vertex 31.805 -39.33 -5.32098
      vertex 16.5375 -21.8584 -6.51684
      vertex 15.4354 -22.9604 -5.32098
    endloop
  endfacet
  facet normal 0.430461 0.430461 0.793351
    outer loop
      vertex 34.3212 -39.6422 -6.51684
      vertex 49.5887 -57.1137 -5.32098
      vertex 50.6907 -56.0117 -6.51684
    endloop
  endfacet
  facet normal 0.430461 0.430461 0.793351
    outer loop
      vertex 49.5887 -57.1137 -5.32098
      vertex 34.3212 -39.6422 -6.51684
      vertex 33.2192 -40.7442 -5.32098
    endloop
  endfacet
  facet normal 0.430461 0.430461 0.793351
    outer loop
      vertex 52.1049 -57.4259 -6.51684
      vertex 67.3724 -74.8974 -5.32098
      vertex 68.4744 -73.7954 -6.51684
    endloop
  endfacet
  facet normal 0.430461 0.430461 0.793351
    outer loop
      vertex 67.3724 -74.8974 -5.32098
      vertex 52.1049 -57.4259 -6.51684
      vertex 51.0029 -58.5279 -5.32098
    endloop
  endfacet
  facet normal 0.430463 0.43046 0.793351
    outer loop
      vertex 69.8887 -75.2096 -6.51684
      vertex 85.1562 -92.6812 -5.32098
      vertex 86.2582 -91.5792 -6.51684
    endloop
  endfacet
  facet normal 0.430449 0.430449 0.793364
    outer loop
      vertex 85.1562 -92.6812 -5.32098
      vertex 69.8887 -75.2096 -6.51684
      vertex 68.7867 -76.3117 -5.32098
    endloop
  endfacet
  facet normal 0.430461 0.430461 0.793351
    outer loop
      vertex 87.6724 -92.9934 -6.51684
      vertex 102.94 -110.465 -5.32098
      vertex 104.042 -109.363 -6.51684
    endloop
  endfacet
  facet normal 0.430461 0.430461 0.793351
    outer loop
      vertex 102.94 -110.465 -5.32098
      vertex 87.6724 -92.9934 -6.51684
      vertex 86.5704 -94.0954 -5.32098
    endloop
  endfacet
  facet normal 0.430461 0.430461 0.793351
    outer loop
      vertex 105.456 -110.777 -6.51684
      vertex 120.724 -128.249 -5.32098
      vertex 121.826 -127.147 -6.51684
    endloop
  endfacet
  facet normal 0.430461 0.430461 0.793351
    outer loop
      vertex 120.724 -128.249 -5.32098
      vertex 105.456 -110.777 -6.51684
      vertex 104.354 -111.879 -5.32098
    endloop
  endfacet
  facet normal -0.561011 -0.561011 0.608715
    outer loop
      vertex 130.508 -121.292 -3.7625
      vertex 147.447 -139.922 -5.32098
      vertex 148.292 -139.076 -3.7625
    endloop
  endfacet
  facet normal -0.561011 -0.561011 0.608715
    outer loop
      vertex 147.447 -139.922 -5.32098
      vertex 130.508 -121.292 -3.7625
      vertex 129.663 -122.138 -5.32098
    endloop
  endfacet
  facet normal -0.560987 -0.560986 0.60876
    outer loop
      vertex 6.02232 3.19389 -3.7625
      vertex 21.5462 -14.0212 -5.32098
      vertex 22.3918 -13.1756 -3.7625
    endloop
  endfacet
  facet normal -0.560985 -0.560985 0.608762
    outer loop
      vertex 21.5462 -14.0212 -5.32098
      vertex 6.02232 3.19389 -3.7625
      vertex 5.17671 2.34829 -5.32098
    endloop
  endfacet
  facet normal -0.560988 -0.560985 0.60876
    outer loop
      vertex 23.8061 -14.5898 -3.7625
      vertex 39.33 -31.805 -5.32098
      vertex 40.1756 -30.9594 -3.7625
    endloop
  endfacet
  facet normal -0.560974 -0.560974 0.608783
    outer loop
      vertex 39.33 -31.805 -5.32098
      vertex 23.8061 -14.5898 -3.7625
      vertex 22.9604 -15.4354 -5.32098
    endloop
  endfacet
  facet normal -0.560986 -0.560986 0.60876
    outer loop
      vertex 41.5898 -32.3736 -3.7625
      vertex 57.1137 -49.5887 -5.32098
      vertex 57.9593 -48.7431 -3.7625
    endloop
  endfacet
  facet normal -0.560986 -0.560986 0.60876
    outer loop
      vertex 57.1137 -49.5887 -5.32098
      vertex 41.5898 -32.3736 -3.7625
      vertex 40.7442 -33.2192 -5.32098
    endloop
  endfacet
  facet normal -0.560986 -0.560986 0.60876
    outer loop
      vertex 59.3735 -50.1573 -3.7625
      vertex 74.8974 -67.3724 -5.32098
      vertex 75.743 -66.5268 -3.7625
    endloop
  endfacet
  facet normal -0.560986 -0.560986 0.60876
    outer loop
      vertex 74.8974 -67.3724 -5.32098
      vertex 59.3735 -50.1573 -3.7625
      vertex 58.5279 -51.0029 -5.32098
    endloop
  endfacet
  facet normal -0.560986 -0.560986 0.60876
    outer loop
      vertex 77.1573 -67.9411 -3.7625
      vertex 92.6812 -85.1562 -5.32098
      vertex 93.5268 -84.3106 -3.7625
    endloop
  endfacet
  facet normal -0.560986 -0.560986 0.60876
    outer loop
      vertex 92.6812 -85.1562 -5.32098
      vertex 77.1573 -67.9411 -3.7625
      vertex 76.3117 -68.7867 -5.32098
    endloop
  endfacet
  facet normal -0.560874 -0.560902 0.608941
    outer loop
      vertex 94.941 -85.7248 -3.7625
      vertex 110.465 -102.94 -5.32098
      vertex 111.311 -102.094 -3.7625
    endloop
  endfacet
  facet normal -0.560986 -0.560986 0.60876
    outer loop
      vertex 110.465 -102.94 -5.32098
      vertex 94.941 -85.7248 -3.7625
      vertex 94.0954 -86.5704 -5.32098
    endloop
  endfacet
  facet normal -0.561011 -0.561011 0.608715
    outer loop
      vertex 112.725 -103.509 -3.7625
      vertex 128.249 -120.724 -5.32098
      vertex 129.094 -119.878 -3.7625
    endloop
  endfacet
  facet normal -0.561011 -0.561011 0.608715
    outer loop
      vertex 128.249 -120.724 -5.32098
      vertex 112.725 -103.509 -3.7625
      vertex 111.879 -104.354 -5.32098
    endloop
  endfacet
  facet normal -0.270565 -0.270565 0.923899
    outer loop
      vertex 128.561 -123.24 -6.51684
      vertex 145.061 -142.307 -7.26859
      vertex 146.345 -141.024 -6.51684
    endloop
  endfacet
  facet normal -0.270663 -0.270648 0.923846
    outer loop
      vertex 145.061 -142.307 -7.26859
      vertex 128.561 -123.24 -6.51684
      vertex 127.278 -124.523 -7.26859
    endloop
  endfacet
  facet normal -0.270592 -0.270592 0.923883
    outer loop
      vertex 4.0747 1.24628 -6.51684
      vertex 19.1609 -16.4066 -7.26859
      vertex 20.4442 -15.1232 -6.51684
    endloop
  endfacet
  facet normal -0.270598 -0.270597 0.92388
    outer loop
      vertex 19.1609 -16.4066 -7.26859
      vertex 4.0747 1.24628 -6.51684
      vertex 2.79138 -0.0370434 -7.26859
    endloop
  endfacet
  facet normal -0.270591 -0.270593 0.923883
    outer loop
      vertex 21.8584 -16.5375 -6.51684
      vertex 36.9446 -34.1903 -7.26859
      vertex 38.228 -32.907 -6.51684
    endloop
  endfacet
  facet normal -0.270601 -0.270601 0.923878
    outer loop
      vertex 36.9446 -34.1903 -7.26859
      vertex 21.8584 -16.5375 -6.51684
      vertex 20.5751 -17.8208 -7.26859
    endloop
  endfacet
  facet normal -0.270601 -0.270601 0.923878
    outer loop
      vertex 39.6422 -34.3212 -6.51684
      vertex 54.7284 -51.974 -7.26859
      vertex 56.0117 -50.6907 -6.51684
    endloop
  endfacet
  facet normal -0.270601 -0.270601 0.923878
    outer loop
      vertex 54.7284 -51.974 -7.26859
      vertex 39.6422 -34.3212 -6.51684
      vertex 38.3589 -35.6045 -7.26859
    endloop
  endfacet
  facet normal -0.270592 -0.270592 0.923883
    outer loop
      vertex 57.4259 -52.1049 -6.51684
      vertex 72.5121 -69.7578 -7.26859
      vertex 73.7954 -68.4744 -6.51684
    endloop
  endfacet
  facet normal -0.270602 -0.2706 0.923878
    outer loop
      vertex 72.5121 -69.7578 -7.26859
      vertex 57.4259 -52.1049 -6.51684
      vertex 56.1426 -53.3882 -7.26859
    endloop
  endfacet
  facet normal -0.270591 -0.270593 0.923883
    outer loop
      vertex 75.2096 -69.8887 -6.51684
      vertex 90.2958 -87.5415 -7.26859
      vertex 91.5792 -86.2582 -6.51684
    endloop
  endfacet
  facet normal -0.270601 -0.270601 0.923878
    outer loop
      vertex 90.2958 -87.5415 -7.26859
      vertex 75.2096 -69.8887 -6.51684
      vertex 73.9263 -71.172 -7.26859
    endloop
  endfacet
  facet normal -0.270655 -0.270655 0.923846
    outer loop
      vertex 92.9934 -87.6724 -6.51684
      vertex 108.08 -105.325 -7.26859
      vertex 109.363 -104.042 -6.51684
    endloop
  endfacet
  facet normal -0.270596 -0.270606 0.923878
    outer loop
      vertex 108.08 -105.325 -7.26859
      vertex 92.9934 -87.6724 -6.51684
      vertex 91.7101 -88.9557 -7.26859
    endloop
  endfacet
  facet normal -0.270565 -0.270565 0.923899
    outer loop
      vertex 110.777 -105.456 -6.51684
      vertex 125.863 -123.109 -7.26859
      vertex 127.147 -121.826 -6.51684
    endloop
  endfacet
  facet normal -0.270663 -0.270647 0.923846
    outer loop
      vertex 125.863 -123.109 -7.26859
      vertex 110.777 -105.456 -6.51684
      vertex 109.494 -106.739 -7.26859
    endloop
  endfacet
  facet normal 0.561011 0.561011 0.608715
    outer loop
      vertex 122.138 -129.663 -5.32098
      vertex 139.076 -148.292 -3.7625
      vertex 139.922 -147.447 -5.32098
    endloop
  endfacet
  facet normal 0.561011 0.561011 0.608715
    outer loop
      vertex 139.076 -148.292 -3.7625
      vertex 122.138 -129.663 -5.32098
      vertex 121.292 -130.508 -3.7625
    endloop
  endfacet
  facet normal 0.560986 0.560986 0.60876
    outer loop
      vertex -2.34829 -5.17671 -5.32098
      vertex 13.1756 -22.3918 -3.7625
      vertex 14.0212 -21.5462 -5.32098
    endloop
  endfacet
  facet normal 0.560985 0.560985 0.608762
    outer loop
      vertex 13.1756 -22.3918 -3.7625
      vertex -2.34829 -5.17671 -5.32098
      vertex -3.19389 -6.02232 -3.7625
    endloop
  endfacet
  facet normal 0.560986 0.560986 0.60876
    outer loop
      vertex 15.4354 -22.9604 -5.32098
      vertex 30.9594 -40.1756 -3.7625
      vertex 31.805 -39.33 -5.32098
    endloop
  endfacet
  facet normal 0.560972 0.560976 0.608783
    outer loop
      vertex 30.9594 -40.1756 -3.7625
      vertex 15.4354 -22.9604 -5.32098
      vertex 14.5898 -23.8061 -3.7625
    endloop
  endfacet
  facet normal 0.560986 0.560986 0.60876
    outer loop
      vertex 33.2192 -40.7442 -5.32098
      vertex 48.7431 -57.9593 -3.7625
      vertex 49.5887 -57.1137 -5.32098
    endloop
  endfacet
  facet normal 0.560986 0.560986 0.60876
    outer loop
      vertex 48.7431 -57.9593 -3.7625
      vertex 33.2192 -40.7442 -5.32098
      vertex 32.3736 -41.5898 -3.7625
    endloop
  endfacet
  facet normal 0.560986 0.560986 0.60876
    outer loop
      vertex 51.0029 -58.5279 -5.32098
      vertex 66.5268 -75.743 -3.7625
      vertex 67.3724 -74.8974 -5.32098
    endloop
  endfacet
  facet normal 0.560986 0.560986 0.60876
    outer loop
      vertex 66.5268 -75.743 -3.7625
      vertex 51.0029 -58.5279 -5.32098
      vertex 50.1573 -59.3735 -3.7625
    endloop
  endfacet
  facet normal 0.560986 0.560986 0.60876
    outer loop
      vertex 68.7867 -76.3117 -5.32098
      vertex 84.3106 -93.5268 -3.7625
      vertex 85.1562 -92.6812 -5.32098
    endloop
  endfacet
  facet normal 0.560986 0.560986 0.60876
    outer loop
      vertex 84.3106 -93.5268 -3.7625
      vertex 68.7867 -76.3117 -5.32098
      vertex 67.9411 -77.1573 -3.7625
    endloop
  endfacet
  facet normal 0.560888 0.560888 0.608941
    outer loop
      vertex 86.5704 -94.0954 -5.32098
      vertex 102.094 -111.311 -3.7625
      vertex 102.94 -110.465 -5.32098
    endloop
  endfacet
  facet normal 0.561 0.560973 0.60876
    outer loop
      vertex 102.094 -111.311 -3.7625
      vertex 86.5704 -94.0954 -5.32098
      vertex 85.7248 -94.941 -3.7625
    endloop
  endfacet
  facet normal 0.561011 0.561011 0.608715
    outer loop
      vertex 104.354 -111.879 -5.32098
      vertex 119.878 -129.094 -3.7625
      vertex 120.724 -128.249 -5.32098
    endloop
  endfacet
  facet normal 0.561011 0.561011 0.608715
    outer loop
      vertex 119.878 -129.094 -3.7625
      vertex 104.354 -111.879 -5.32098
      vertex 103.509 -112.725 -3.7625
    endloop
  endfacet
  facet normal -0.701025 -0.701064 0.130662
    outer loop
      vertex 148.824 -138.544 -1.94761
      vertex 131.221 -120.579 0
      vertex 131.04 -120.761 -1.94761
    endloop
  endfacet
  facet normal -0.701078 -0.701078 0.130308
    outer loop
      vertex 131.221 -120.579 0
      vertex 148.824 -138.544 -1.94761
      vertex 149.005 -138.363 0
    endloop
  endfacet
  facet normal -0.701059 -0.701056 0.130524
    outer loop
      vertex 6.55388 3.72546 -1.94761
      vertex 23.1047 -12.4628 0
      vertex 6.73519 3.90676 0
    endloop
  endfacet
  facet normal -0.701059 -0.701057 0.130521
    outer loop
      vertex 23.1047 -12.4628 0
      vertex 6.55388 3.72546 -1.94761
      vertex 22.9234 -12.6441 -1.94761
    endloop
  endfacet
  facet normal -0.701058 -0.701058 0.130521
    outer loop
      vertex 40.7071 -30.4278 -1.94761
      vertex 24.5189 -13.877 0
      vertex 24.3376 -14.0583 -1.94761
    endloop
  endfacet
  facet normal -0.701052 -0.701057 0.130556
    outer loop
      vertex 24.5189 -13.877 0
      vertex 40.7071 -30.4278 -1.94761
      vertex 40.8885 -30.2465 0
    endloop
  endfacet
  facet normal -0.701058 -0.701058 0.130521
    outer loop
      vertex 42.1214 -31.842 -1.94761
      vertex 58.6722 -48.0302 0
      vertex 42.3027 -31.6607 0
    endloop
  endfacet
  facet normal -0.701058 -0.701058 0.130521
    outer loop
      vertex 58.6722 -48.0302 0
      vertex 42.1214 -31.842 -1.94761
      vertex 58.4909 -48.2115 -1.94761
    endloop
  endfacet
  facet normal -0.701057 -0.701052 0.130556
    outer loop
      vertex 59.9051 -49.6258 -1.94761
      vertex 76.4559 -65.814 0
      vertex 60.0864 -49.4444 0
    endloop
  endfacet
  facet normal -0.701058 -0.701058 0.130521
    outer loop
      vertex 76.4559 -65.814 0
      vertex 59.9051 -49.6258 -1.94761
      vertex 76.2746 -65.9953 -1.94761
    endloop
  endfacet
  facet normal -0.701056 -0.70106 0.130521
    outer loop
      vertex 77.6888 -67.4095 -1.94761
      vertex 94.2397 -83.5977 0
      vertex 77.8701 -67.2282 0
    endloop
  endfacet
  facet normal -0.701055 -0.701055 0.130556
    outer loop
      vertex 94.2397 -83.5977 0
      vertex 77.6888 -67.4095 -1.94761
      vertex 94.0583 -83.779 -1.94761
    endloop
  endfacet
  facet normal -0.701058 -0.701058 0.130521
    outer loop
      vertex 95.4726 -85.1932 -1.94761
      vertex 112.023 -101.381 0
      vertex 95.6539 -85.0119 0
    endloop
  endfacet
  facet normal -0.701053 -0.701036 0.130662
    outer loop
      vertex 112.023 -101.381 0
      vertex 95.4726 -85.1932 -1.94761
      vertex 111.842 -101.563 -1.94761
    endloop
  endfacet
  facet normal -0.701045 -0.701045 0.130662
    outer loop
      vertex 113.256 -102.977 -1.94761
      vertex 129.807 -119.165 0
      vertex 113.438 -102.796 0
    endloop
  endfacet
  facet normal -0.701056 -0.701099 0.130308
    outer loop
      vertex 129.807 -119.165 0
      vertex 113.256 -102.977 -1.94761
      vertex 129.626 -119.346 -1.94761
    endloop
  endfacet
  facet normal 0.653294 0.653294 0.382641
    outer loop
      vertex 120.761 -131.04 -1.94761
      vertex 139.076 -148.292 -3.7625
      vertex 121.292 -130.508 -3.7625
    endloop
  endfacet
  facet normal 0.653222 0.653186 0.382948
    outer loop
      vertex 139.076 -148.292 -3.7625
      vertex 120.761 -131.04 -1.94761
      vertex 138.544 -148.824 -1.94761
    endloop
  endfacet
  facet normal 0.653282 0.653282 0.382681
    outer loop
      vertex -3.72546 -6.55388 -1.94761
      vertex 13.1756 -22.3918 -3.7625
      vertex -3.19389 -6.02232 -3.7625
    endloop
  endfacet
  facet normal 0.653284 0.653286 0.382672
    outer loop
      vertex 13.1756 -22.3918 -3.7625
      vertex -3.72546 -6.55388 -1.94761
      vertex 12.6441 -22.9234 -1.94761
    endloop
  endfacet
  facet normal 0.653283 0.653287 0.382672
    outer loop
      vertex 14.5898 -23.8061 -3.7625
      vertex 30.4278 -40.7071 -1.94761
      vertex 30.9594 -40.1756 -3.7625
    endloop
  endfacet
  facet normal 0.653294 0.653294 0.382641
    outer loop
      vertex 30.4278 -40.7071 -1.94761
      vertex 14.5898 -23.8061 -3.7625
      vertex 14.0583 -24.3376 -1.94761
    endloop
  endfacet
  facet normal 0.653276 0.653276 0.382702
    outer loop
      vertex 31.842 -42.1214 -1.94761
      vertex 48.7431 -57.9593 -3.7625
      vertex 32.3736 -41.5898 -3.7625
    endloop
  endfacet
  facet normal 0.653276 0.653276 0.382702
    outer loop
      vertex 48.7431 -57.9593 -3.7625
      vertex 31.842 -42.1214 -1.94761
      vertex 48.2115 -58.4909 -1.94761
    endloop
  endfacet
  facet normal 0.653285 0.653285 0.382672
    outer loop
      vertex 49.6258 -59.9051 -1.94761
      vertex 66.5268 -75.743 -3.7625
      vertex 50.1573 -59.3735 -3.7625
    endloop
  endfacet
  facet normal 0.653285 0.653285 0.382672
    outer loop
      vertex 66.5268 -75.743 -3.7625
      vertex 49.6258 -59.9051 -1.94761
      vertex 65.9953 -76.2746 -1.94761
    endloop
  endfacet
  facet normal 0.653285 0.653285 0.382672
    outer loop
      vertex 67.4095 -77.6888 -1.94761
      vertex 84.3106 -93.5268 -3.7625
      vertex 67.9411 -77.1573 -3.7625
    endloop
  endfacet
  facet normal 0.653285 0.653285 0.382672
    outer loop
      vertex 84.3106 -93.5268 -3.7625
      vertex 67.4095 -77.6888 -1.94761
      vertex 83.779 -94.0583 -1.94761
    endloop
  endfacet
  facet normal 0.653292 0.65326 0.382702
    outer loop
      vertex 85.1932 -95.4726 -1.94761
      vertex 102.094 -111.311 -3.7625
      vertex 85.7248 -94.941 -3.7625
    endloop
  endfacet
  facet normal 0.653376 0.653392 0.382334
    outer loop
      vertex 102.094 -111.311 -3.7625
      vertex 85.1932 -95.4726 -1.94761
      vertex 101.563 -111.842 -1.94761
    endloop
  endfacet
  facet normal 0.653294 0.653294 0.382641
    outer loop
      vertex 102.977 -113.256 -1.94761
      vertex 119.878 -129.094 -3.7625
      vertex 103.509 -112.725 -3.7625
    endloop
  endfacet
  facet normal 0.653224 0.653184 0.382948
    outer loop
      vertex 119.878 -129.094 -3.7625
      vertex 102.977 -113.256 -1.94761
      vertex 119.346 -129.626 -1.94761
    endloop
  endfacet
  facet normal 0.701064 0.701025 0.130662
    outer loop
      vertex 120.579 -131.221 0
      vertex 138.544 -148.824 -1.94761
      vertex 120.761 -131.04 -1.94761
    endloop
  endfacet
  facet normal 0.701078 0.701078 0.130308
    outer loop
      vertex 138.544 -148.824 -1.94761
      vertex 120.579 -131.221 0
      vertex 138.363 -149.005 0
    endloop
  endfacet
  facet normal 0.701057 0.701058 0.130524
    outer loop
      vertex -3.90676 -6.73519 0
      vertex 12.6441 -22.9234 -1.94761
      vertex -3.72546 -6.55388 -1.94761
    endloop
  endfacet
  facet normal 0.701057 0.701059 0.130521
    outer loop
      vertex 12.6441 -22.9234 -1.94761
      vertex -3.90676 -6.73519 0
      vertex 12.4628 -23.1047 0
    endloop
  endfacet
  facet normal 0.701058 0.701058 0.130521
    outer loop
      vertex 13.877 -24.5189 0
      vertex 30.4278 -40.7071 -1.94761
      vertex 14.0583 -24.3376 -1.94761
    endloop
  endfacet
  facet normal 0.701057 0.701052 0.130556
    outer loop
      vertex 30.4278 -40.7071 -1.94761
      vertex 13.877 -24.5189 0
      vertex 30.2465 -40.8885 0
    endloop
  endfacet
  facet normal 0.701058 0.701058 0.130521
    outer loop
      vertex 31.6607 -42.3027 0
      vertex 48.2115 -58.4909 -1.94761
      vertex 31.842 -42.1214 -1.94761
    endloop
  endfacet
  facet normal 0.701058 0.701058 0.130521
    outer loop
      vertex 48.2115 -58.4909 -1.94761
      vertex 31.6607 -42.3027 0
      vertex 48.0302 -58.6722 0
    endloop
  endfacet
  facet normal 0.701055 0.701055 0.130556
    outer loop
      vertex 49.4444 -60.0864 0
      vertex 65.9953 -76.2746 -1.94761
      vertex 49.6258 -59.9051 -1.94761
    endloop
  endfacet
  facet normal 0.701056 0.70106 0.130521
    outer loop
      vertex 65.9953 -76.2746 -1.94761
      vertex 49.4444 -60.0864 0
      vertex 65.814 -76.4559 0
    endloop
  endfacet
  facet normal 0.701058 0.701058 0.130521
    outer loop
      vertex 67.2282 -77.8701 0
      vertex 83.779 -94.0583 -1.94761
      vertex 67.4095 -77.6888 -1.94761
    endloop
  endfacet
  facet normal 0.701057 0.701052 0.130556
    outer loop
      vertex 83.779 -94.0583 -1.94761
      vertex 67.2282 -77.8701 0
      vertex 83.5977 -94.2397 0
    endloop
  endfacet
  facet normal 0.701049 0.701066 0.130521
    outer loop
      vertex 85.0119 -95.6539 0
      vertex 101.563 -111.842 -1.94761
      vertex 85.1932 -95.4726 -1.94761
    endloop
  endfacet
  facet normal 0.701045 0.701045 0.130662
    outer loop
      vertex 101.563 -111.842 -1.94761
      vertex 85.0119 -95.6539 0
      vertex 101.381 -112.023 0
    endloop
  endfacet
  facet normal 0.701066 0.701023 0.130662
    outer loop
      vertex 102.796 -113.438 0
      vertex 119.346 -129.626 -1.94761
      vertex 102.977 -113.256 -1.94761
    endloop
  endfacet
  facet normal 0.701078 0.701078 0.130308
    outer loop
      vertex 119.346 -129.626 -1.94761
      vertex 102.796 -113.438 0
      vertex 119.165 -129.807 0
    endloop
  endfacet
  facet normal -0.653294 -0.653294 0.382641
    outer loop
      vertex 148.292 -139.076 -3.7625
      vertex 131.04 -120.761 -1.94761
      vertex 130.508 -121.292 -3.7625
    endloop
  endfacet
  facet normal -0.653186 -0.653222 0.382948
    outer loop
      vertex 131.04 -120.761 -1.94761
      vertex 148.292 -139.076 -3.7625
      vertex 148.824 -138.544 -1.94761
    endloop
  endfacet
  facet normal -0.653283 -0.653281 0.382681
    outer loop
      vertex 6.02232 3.19389 -3.7625
      vertex 22.9234 -12.6441 -1.94761
      vertex 6.55388 3.72546 -1.94761
    endloop
  endfacet
  facet normal -0.653285 -0.653285 0.382672
    outer loop
      vertex 22.9234 -12.6441 -1.94761
      vertex 6.02232 3.19389 -3.7625
      vertex 22.3918 -13.1756 -3.7625
    endloop
  endfacet
  facet normal -0.653294 -0.653294 0.382641
    outer loop
      vertex 23.8061 -14.5898 -3.7625
      vertex 40.7071 -30.4278 -1.94761
      vertex 24.3376 -14.0583 -1.94761
    endloop
  endfacet
  facet normal -0.653287 -0.653283 0.382672
    outer loop
      vertex 40.7071 -30.4278 -1.94761
      vertex 23.8061 -14.5898 -3.7625
      vertex 40.1756 -30.9594 -3.7625
    endloop
  endfacet
  facet normal -0.653276 -0.653276 0.382702
    outer loop
      vertex 41.5898 -32.3736 -3.7625
      vertex 58.4909 -48.2115 -1.94761
      vertex 42.1214 -31.842 -1.94761
    endloop
  endfacet
  facet normal -0.653276 -0.653276 0.382702
    outer loop
      vertex 58.4909 -48.2115 -1.94761
      vertex 41.5898 -32.3736 -3.7625
      vertex 57.9593 -48.7431 -3.7625
    endloop
  endfacet
  facet normal -0.653285 -0.653285 0.382672
    outer loop
      vertex 59.3735 -50.1573 -3.7625
      vertex 76.2746 -65.9953 -1.94761
      vertex 59.9051 -49.6258 -1.94761
    endloop
  endfacet
  facet normal -0.653285 -0.653285 0.382672
    outer loop
      vertex 76.2746 -65.9953 -1.94761
      vertex 59.3735 -50.1573 -3.7625
      vertex 75.743 -66.5268 -3.7625
    endloop
  endfacet
  facet normal -0.653285 -0.653285 0.382672
    outer loop
      vertex 77.1573 -67.9411 -3.7625
      vertex 94.0583 -83.779 -1.94761
      vertex 77.6888 -67.4095 -1.94761
    endloop
  endfacet
  facet normal -0.653285 -0.653285 0.382672
    outer loop
      vertex 94.0583 -83.779 -1.94761
      vertex 77.1573 -67.9411 -3.7625
      vertex 93.5268 -84.3106 -3.7625
    endloop
  endfacet
  facet normal -0.653284 -0.653268 0.382702
    outer loop
      vertex 94.941 -85.7248 -3.7625
      vertex 111.842 -101.563 -1.94761
      vertex 95.4726 -85.1932 -1.94761
    endloop
  endfacet
  facet normal -0.653368 -0.6534 0.382334
    outer loop
      vertex 111.842 -101.563 -1.94761
      vertex 94.941 -85.7248 -3.7625
      vertex 111.311 -102.094 -3.7625
    endloop
  endfacet
  facet normal -0.653294 -0.653294 0.382641
    outer loop
      vertex 129.094 -119.878 -3.7625
      vertex 113.256 -102.977 -1.94761
      vertex 112.725 -103.509 -3.7625
    endloop
  endfacet
  facet normal -0.653184 -0.653224 0.382948
    outer loop
      vertex 113.256 -102.977 -1.94761
      vertex 129.094 -119.878 -3.7625
      vertex 129.626 -119.346 -1.94761
    endloop
  endfacet
  facet normal 0.270558 0.270573 0.923899
    outer loop
      vertex 124.523 -127.278 -7.26859
      vertex 141.024 -146.345 -6.51684
      vertex 142.307 -145.061 -7.26859
    endloop
  endfacet
  facet normal 0.270655 0.270655 0.923846
    outer loop
      vertex 141.024 -146.345 -6.51684
      vertex 124.523 -127.278 -7.26859
      vertex 123.24 -128.561 -6.51684
    endloop
  endfacet
  facet normal 0.270592 0.270593 0.923883
    outer loop
      vertex 0.0370434 -2.79138 -7.26859
      vertex 15.1232 -20.4442 -6.51684
      vertex 16.4066 -19.1609 -7.26859
    endloop
  endfacet
  facet normal 0.270597 0.270597 0.92388
    outer loop
      vertex 15.1232 -20.4442 -6.51684
      vertex 0.0370434 -2.79138 -7.26859
      vertex -1.24628 -4.0747 -6.51684
    endloop
  endfacet
  facet normal 0.270592 0.270592 0.923883
    outer loop
      vertex 17.8208 -20.5751 -7.26859
      vertex 32.907 -38.228 -6.51684
      vertex 34.1903 -36.9446 -7.26859
    endloop
  endfacet
  facet normal 0.270602 0.2706 0.923878
    outer loop
      vertex 32.907 -38.228 -6.51684
      vertex 17.8208 -20.5751 -7.26859
      vertex 16.5375 -21.8584 -6.51684
    endloop
  endfacet
  facet normal 0.270601 0.270601 0.923878
    outer loop
      vertex 35.6045 -38.3589 -7.26859
      vertex 50.6907 -56.0117 -6.51684
      vertex 51.974 -54.7284 -7.26859
    endloop
  endfacet
  facet normal 0.270601 0.270601 0.923878
    outer loop
      vertex 50.6907 -56.0117 -6.51684
      vertex 35.6045 -38.3589 -7.26859
      vertex 34.3212 -39.6422 -6.51684
    endloop
  endfacet
  facet normal 0.270591 0.270593 0.923883
    outer loop
      vertex 53.3882 -56.1426 -7.26859
      vertex 68.4744 -73.7954 -6.51684
      vertex 69.7578 -72.5121 -7.26859
    endloop
  endfacet
  facet normal 0.270601 0.270601 0.923878
    outer loop
      vertex 68.4744 -73.7954 -6.51684
      vertex 53.3882 -56.1426 -7.26859
      vertex 52.1049 -57.4259 -6.51684
    endloop
  endfacet
  facet normal 0.270592 0.270592 0.923883
    outer loop
      vertex 71.172 -73.9263 -7.26859
      vertex 86.2582 -91.5792 -6.51684
      vertex 87.5415 -90.2958 -7.26859
    endloop
  endfacet
  facet normal 0.270602 0.2706 0.923878
    outer loop
      vertex 86.2582 -91.5792 -6.51684
      vertex 71.172 -73.9263 -7.26859
      vertex 69.8887 -75.2096 -6.51684
    endloop
  endfacet
  facet normal 0.27066 0.27065 0.923846
    outer loop
      vertex 88.9557 -91.7101 -7.26859
      vertex 104.042 -109.363 -6.51684
      vertex 105.325 -108.08 -7.26859
    endloop
  endfacet
  facet normal 0.270601 0.270601 0.923878
    outer loop
      vertex 104.042 -109.363 -6.51684
      vertex 88.9557 -91.7101 -7.26859
      vertex 87.6724 -92.9934 -6.51684
    endloop
  endfacet
  facet normal 0.270557 0.270573 0.923899
    outer loop
      vertex 106.739 -109.494 -7.26859
      vertex 121.826 -127.147 -6.51684
      vertex 123.109 -125.863 -7.26859
    endloop
  endfacet
  facet normal 0.270655 0.270655 0.923846
    outer loop
      vertex 121.826 -127.147 -6.51684
      vertex 106.739 -109.494 -7.26859
      vertex 105.456 -110.777 -6.51684
    endloop
  endfacet
  facet normal -0.0923104 -0.0923053 0.991443
    outer loop
      vertex 127.278 -124.523 -7.26859
      vertex 143.684 -143.684 -7.525
      vertex 145.061 -142.307 -7.26859
    endloop
  endfacet
  facet normal -0.0922749 -0.0922749 0.991449
    outer loop
      vertex 143.684 -143.684 -7.525
      vertex 127.278 -124.523 -7.26859
      vertex 125.9 -125.9 -7.525
    endloop
  endfacet
  facet normal -0.0922981 -0.0922979 0.991444
    outer loop
      vertex 2.79138 -0.0370434 -7.26859
      vertex 17.7837 -17.7837 -7.525
      vertex 19.1609 -16.4066 -7.26859
    endloop
  endfacet
  facet normal -0.0922968 -0.0922968 0.991445
    outer loop
      vertex 17.7837 -17.7837 -7.525
      vertex 2.79138 -0.0370434 -7.26859
      vertex 1.41421 -1.41421 -7.525
    endloop
  endfacet
  facet normal -0.092298 -0.092298 0.991444
    outer loop
      vertex 20.5751 -17.8208 -7.26859
      vertex 35.5675 -35.5675 -7.525
      vertex 36.9446 -34.1903 -7.26859
    endloop
  endfacet
  facet normal -0.092298 -0.092298 0.991444
    outer loop
      vertex 35.5675 -35.5675 -7.525
      vertex 20.5751 -17.8208 -7.26859
      vertex 19.1979 -19.1979 -7.525
    endloop
  endfacet
  facet normal -0.0922947 -0.0922947 0.991445
    outer loop
      vertex 38.3589 -35.6045 -7.26859
      vertex 53.3512 -53.3512 -7.525
      vertex 54.7284 -51.974 -7.26859
    endloop
  endfacet
  facet normal -0.0922947 -0.0922947 0.991445
    outer loop
      vertex 53.3512 -53.3512 -7.525
      vertex 38.3589 -35.6045 -7.26859
      vertex 36.9817 -36.9817 -7.525
    endloop
  endfacet
  facet normal -0.0922982 -0.0922977 0.991444
    outer loop
      vertex 56.1426 -53.3882 -7.26859
      vertex 71.1349 -71.1349 -7.525
      vertex 72.5121 -69.7578 -7.26859
    endloop
  endfacet
  facet normal -0.0922947 -0.0922947 0.991445
    outer loop
      vertex 71.1349 -71.1349 -7.525
      vertex 56.1426 -53.3882 -7.26859
      vertex 54.7654 -54.7654 -7.525
    endloop
  endfacet
  facet normal -0.092298 -0.092298 0.991444
    outer loop
      vertex 73.9263 -71.172 -7.26859
      vertex 88.9187 -88.9187 -7.525
      vertex 90.2958 -87.5415 -7.26859
    endloop
  endfacet
  facet normal -0.092298 -0.092298 0.991444
    outer loop
      vertex 88.9187 -88.9187 -7.525
      vertex 73.9263 -71.172 -7.26859
      vertex 72.5492 -72.5492 -7.525
    endloop
  endfacet
  facet normal -0.0922732 -0.0922766 0.991449
    outer loop
      vertex 91.7101 -88.9557 -7.26859
      vertex 106.702 -106.702 -7.525
      vertex 108.08 -105.325 -7.26859
    endloop
  endfacet
  facet normal -0.0922947 -0.0922947 0.991445
    outer loop
      vertex 106.702 -106.702 -7.525
      vertex 91.7101 -88.9557 -7.26859
      vertex 90.3329 -90.3329 -7.525
    endloop
  endfacet
  facet normal -0.0923107 -0.092305 0.991443
    outer loop
      vertex 109.494 -106.739 -7.26859
      vertex 124.486 -124.486 -7.525
      vertex 125.863 -123.109 -7.26859
    endloop
  endfacet
  facet normal -0.0922749 -0.0922749 0.991449
    outer loop
      vertex 124.486 -124.486 -7.525
      vertex 109.494 -106.739 -7.26859
      vertex 108.117 -108.117 -7.525
    endloop
  endfacet
  facet normal 0.707107 -0.707107 -3.63064e-06
    outer loop
      vertex -3.72546 -6.55388 -1.94761
      vertex 6.55388 3.72546 -1.94761
      vertex 6.73519 3.90676 0
    endloop
  endfacet
  facet normal 0.707107 -0.707107 3.89614e-06
    outer loop
      vertex 6.55388 3.72546 -1.94761
      vertex -3.72546 -6.55388 -1.94761
      vertex 6.02232 3.19389 -3.7625
    endloop
  endfacet
  facet normal 0.707107 -0.707107 -4.53716e-06
    outer loop
      vertex 6.02232 3.19389 -3.7625
      vertex -3.19389 -6.02232 -3.7625
      vertex 5.17671 2.34829 -5.32098
    endloop
  endfacet
  facet normal 0.707107 -0.707107 -4.53716e-06
    outer loop
      vertex -2.34829 -5.17671 -5.32098
      vertex 5.17671 2.34829 -5.32098
      vertex -3.19389 -6.02232 -3.7625
    endloop
  endfacet
  facet normal 0.707107 -0.707107 0
    outer loop
      vertex -1.24628 -4.0747 -6.51684
      vertex 4.0747 1.24628 -6.51684
      vertex -2.34829 -5.17671 -5.32098
    endloop
  endfacet
  facet normal 0.707107 -0.707107 3.19809e-06
    outer loop
      vertex 4.0747 1.24628 -6.51684
      vertex -1.24628 -4.0747 -6.51684
      vertex 2.79138 -0.0370434 -7.26859
    endloop
  endfacet
  facet normal 0.707107 -0.707107 -9.37625e-06
    outer loop
      vertex 2.79138 -0.0370434 -7.26859
      vertex 0.0370434 -2.79138 -7.26859
      vertex 1.41421 -1.41421 -7.525
    endloop
  endfacet
  facet normal 0.707107 -0.707107 3.19809e-06
    outer loop
      vertex 0.0370434 -2.79138 -7.26859
      vertex 2.79138 -0.0370434 -7.26859
      vertex -1.24628 -4.0747 -6.51684
    endloop
  endfacet
  facet normal 0.707107 -0.707107 0
    outer loop
      vertex 5.17671 2.34829 -5.32098
      vertex -2.34829 -5.17671 -5.32098
      vertex 4.0747 1.24628 -6.51684
    endloop
  endfacet
  facet normal 0.707107 -0.707107 3.89614e-06
    outer loop
      vertex 6.02232 3.19389 -3.7625
      vertex -3.72546 -6.55388 -1.94761
      vertex -3.19389 -6.02232 -3.7625
    endloop
  endfacet
  facet normal 0.707107 -0.707107 -3.63064e-06
    outer loop
      vertex -3.72546 -6.55388 -1.94761
      vertex 6.73519 3.90676 0
      vertex -3.90676 -6.73519 0
    endloop
  endfacet
  facet normal -0.707107 0.707107 3.89614e-05
    outer loop
      vertex 12.6441 -22.9234 -1.94761
      vertex 22.9234 -12.6441 -1.94761
      vertex 22.3918 -13.1756 -3.7625
    endloop
  endfacet
  facet normal -0.707107 0.707107 0
    outer loop
      vertex 13.1756 -22.3918 -3.7625
      vertex 22.3918 -13.1756 -3.7625
      vertex 21.5462 -14.0212 -5.32098
    endloop
  endfacet
  facet normal -0.707107 0.707107 0
    outer loop
      vertex 14.0212 -21.5462 -5.32098
      vertex 21.5462 -14.0212 -5.32098
      vertex 20.4442 -15.1232 -6.51684
    endloop
  endfacet
  facet normal -0.707107 0.707107 -9.40614e-05
    outer loop
      vertex 15.1232 -20.4442 -6.51684
      vertex 20.4442 -15.1232 -6.51684
      vertex 19.1609 -16.4066 -7.26859
    endloop
  endfacet
  facet normal -0.707107 0.707107 0.000275772
    outer loop
      vertex 16.4066 -19.1609 -7.26859
      vertex 19.1609 -16.4066 -7.26859
      vertex 17.7837 -17.7837 -7.525
    endloop
  endfacet
  facet normal -0.707107 0.707107 -9.40614e-05
    outer loop
      vertex 19.1609 -16.4066 -7.26859
      vertex 16.4066 -19.1609 -7.26859
      vertex 15.1232 -20.4442 -6.51684
    endloop
  endfacet
  facet normal -0.707107 0.707107 0
    outer loop
      vertex 20.4442 -15.1232 -6.51684
      vertex 15.1232 -20.4442 -6.51684
      vertex 14.0212 -21.5462 -5.32098
    endloop
  endfacet
  facet normal -0.707107 0.707107 0
    outer loop
      vertex 21.5462 -14.0212 -5.32098
      vertex 14.0212 -21.5462 -5.32098
      vertex 13.1756 -22.3918 -3.7625
    endloop
  endfacet
  facet normal -0.707107 0.707107 3.89614e-05
    outer loop
      vertex 12.6441 -22.9234 -1.94761
      vertex 22.3918 -13.1756 -3.7625
      vertex 13.1756 -22.3918 -3.7625
    endloop
  endfacet
  facet normal -0.707107 0.707107 0
    outer loop
      vertex 22.9234 -12.6441 -1.94761
      vertex 12.6441 -22.9234 -1.94761
      vertex 23.1047 -12.4628 0
    endloop
  endfacet
  facet normal -0.707107 0.707107 0
    outer loop
      vertex 23.1047 -12.4628 0
      vertex 12.6441 -22.9234 -1.94761
      vertex 12.4628 -23.1047 0
    endloop
  endfacet
  facet normal 0.707107 -0.707107 -5.01926e-16
    outer loop
      vertex 14.0583 -24.3376 -1.94761
      vertex 24.3376 -14.0583 -1.94761
      vertex 24.5189 -13.877 0
    endloop
  endfacet
  facet normal 0.707107 -0.707107 1.38024e-15
    outer loop
      vertex 24.3376 -14.0583 -1.94761
      vertex 14.0583 -24.3376 -1.94761
      vertex 23.8061 -14.5898 -3.7625
    endloop
  endfacet
  facet normal 0.707107 -0.707107 -4.53716e-05
    outer loop
      vertex 23.8061 -14.5898 -3.7625
      vertex 14.5898 -23.8061 -3.7625
      vertex 22.9604 -15.4354 -5.32098
    endloop
  endfacet
  facet normal 0.707107 -0.707107 -4.53716e-05
    outer loop
      vertex 15.4354 -22.9604 -5.32098
      vertex 22.9604 -15.4354 -5.32098
      vertex 14.5898 -23.8061 -3.7625
    endloop
  endfacet
  facet normal 0.707107 -0.707107 5.91296e-05
    outer loop
      vertex 16.5375 -21.8584 -6.51684
      vertex 21.8584 -16.5375 -6.51684
      vertex 15.4354 -22.9604 -5.32098
    endloop
  endfacet
  facet normal 0.707107 -0.707107 -3.29721e-15
    outer loop
      vertex 21.8584 -16.5375 -6.51684
      vertex 16.5375 -21.8584 -6.51684
      vertex 20.5751 -17.8208 -7.26859
    endloop
  endfacet
  facet normal 0.707107 -0.707107 -0.000275772
    outer loop
      vertex 20.5751 -17.8208 -7.26859
      vertex 17.8208 -20.5751 -7.26859
      vertex 19.1979 -19.1979 -7.525
    endloop
  endfacet
  facet normal 0.707107 -0.707107 -3.33652e-15
    outer loop
      vertex 17.8208 -20.5751 -7.26859
      vertex 20.5751 -17.8208 -7.26859
      vertex 16.5375 -21.8584 -6.51684
    endloop
  endfacet
  facet normal 0.707107 -0.707107 5.91296e-05
    outer loop
      vertex 22.9604 -15.4354 -5.32098
      vertex 15.4354 -22.9604 -5.32098
      vertex 21.8584 -16.5375 -6.51684
    endloop
  endfacet
  facet normal 0.707107 -0.707107 1.20151e-15
    outer loop
      vertex 23.8061 -14.5898 -3.7625
      vertex 14.0583 -24.3376 -1.94761
      vertex 14.5898 -23.8061 -3.7625
    endloop
  endfacet
  facet normal 0.707107 -0.707107 -6.43907e-16
    outer loop
      vertex 14.0583 -24.3376 -1.94761
      vertex 24.5189 -13.877 0
      vertex 13.877 -24.5189 0
    endloop
  endfacet
  facet normal -0.707107 0.707107 -3.89614e-05
    outer loop
      vertex 30.4278 -40.7071 -1.94761
      vertex 40.7071 -30.4278 -1.94761
      vertex 40.1756 -30.9594 -3.7625
    endloop
  endfacet
  facet normal -0.707107 0.707107 1.39921e-15
    outer loop
      vertex 30.9594 -40.1756 -3.7625
      vertex 40.1756 -30.9594 -3.7625
      vertex 39.33 -31.805 -5.32098
    endloop
  endfacet
  facet normal -0.707107 0.707107 0
    outer loop
      vertex 31.805 -39.33 -5.32098
      vertex 39.33 -31.805 -5.32098
      vertex 38.228 -32.907 -6.51684
    endloop
  endfacet
  facet normal -0.707107 0.707107 9.40614e-05
    outer loop
      vertex 32.907 -38.228 -6.51684
      vertex 38.228 -32.907 -6.51684
      vertex 36.9446 -34.1903 -7.26859
    endloop
  endfacet
  facet normal -0.707107 0.707107 -0.000275772
    outer loop
      vertex 34.1903 -36.9446 -7.26859
      vertex 36.9446 -34.1903 -7.26859
      vertex 35.5675 -35.5675 -7.525
    endloop
  endfacet
  facet normal -0.707107 0.707107 9.40614e-05
    outer loop
      vertex 36.9446 -34.1903 -7.26859
      vertex 34.1903 -36.9446 -7.26859
      vertex 32.907 -38.228 -6.51684
    endloop
  endfacet
  facet normal -0.707107 0.707107 0
    outer loop
      vertex 38.228 -32.907 -6.51684
      vertex 32.907 -38.228 -6.51684
      vertex 31.805 -39.33 -5.32098
    endloop
  endfacet
  facet normal -0.707107 0.707107 1.71367e-15
    outer loop
      vertex 39.33 -31.805 -5.32098
      vertex 31.805 -39.33 -5.32098
      vertex 30.9594 -40.1756 -3.7625
    endloop
  endfacet
  facet normal -0.707107 0.707107 -3.89614e-05
    outer loop
      vertex 30.4278 -40.7071 -1.94761
      vertex 40.1756 -30.9594 -3.7625
      vertex 30.9594 -40.1756 -3.7625
    endloop
  endfacet
  facet normal -0.707107 0.707107 3.63064e-05
    outer loop
      vertex 40.7071 -30.4278 -1.94761
      vertex 30.4278 -40.7071 -1.94761
      vertex 40.8885 -30.2465 0
    endloop
  endfacet
  facet normal -0.707107 0.707107 3.63064e-05
    outer loop
      vertex 40.8885 -30.2465 0
      vertex 30.4278 -40.7071 -1.94761
      vertex 30.2465 -40.8885 0
    endloop
  endfacet
  facet normal 0.707107 -0.707107 0
    outer loop
      vertex 31.842 -42.1214 -1.94761
      vertex 42.1214 -31.842 -1.94761
      vertex 42.3027 -31.6607 0
    endloop
  endfacet
  facet normal 0.707107 -0.707107 0
    outer loop
      vertex 42.1214 -31.842 -1.94761
      vertex 31.842 -42.1214 -1.94761
      vertex 41.5898 -32.3736 -3.7625
    endloop
  endfacet
  facet normal 0.707107 -0.707107 0
    outer loop
      vertex 41.5898 -32.3736 -3.7625
      vertex 32.3736 -41.5898 -3.7625
      vertex 40.7442 -33.2192 -5.32098
    endloop
  endfacet
  facet normal 0.707107 -0.707107 0
    outer loop
      vertex 33.2192 -40.7442 -5.32098
      vertex 40.7442 -33.2192 -5.32098
      vertex 32.3736 -41.5898 -3.7625
    endloop
  endfacet
  facet normal 0.707107 -0.707107 0
    outer loop
      vertex 34.3212 -39.6422 -6.51684
      vertex 39.6422 -34.3212 -6.51684
      vertex 33.2192 -40.7442 -5.32098
    endloop
  endfacet
  facet normal 0.707107 -0.707107 0
    outer loop
      vertex 39.6422 -34.3212 -6.51684
      vertex 34.3212 -39.6422 -6.51684
      vertex 38.3589 -35.6045 -7.26859
    endloop
  endfacet
  facet normal 0.707107 -0.707107 -1.95635e-14
    outer loop
      vertex 38.3589 -35.6045 -7.26859
      vertex 35.6045 -38.3589 -7.26859
      vertex 36.9817 -36.9817 -7.525
    endloop
  endfacet
  facet normal 0.707107 -0.707107 0
    outer loop
      vertex 35.6045 -38.3589 -7.26859
      vertex 38.3589 -35.6045 -7.26859
      vertex 34.3212 -39.6422 -6.51684
    endloop
  endfacet
  facet normal 0.707107 -0.707107 0
    outer loop
      vertex 40.7442 -33.2192 -5.32098
      vertex 33.2192 -40.7442 -5.32098
      vertex 39.6422 -34.3212 -6.51684
    endloop
  endfacet
  facet normal 0.707107 -0.707107 0
    outer loop
      vertex 41.5898 -32.3736 -3.7625
      vertex 31.842 -42.1214 -1.94761
      vertex 32.3736 -41.5898 -3.7625
    endloop
  endfacet
  facet normal 0.707107 -0.707107 0
    outer loop
      vertex 31.842 -42.1214 -1.94761
      vertex 42.3027 -31.6607 0
      vertex 31.6607 -42.3027 0
    endloop
  endfacet
  facet normal -0.707107 0.707107 2.69313e-15
    outer loop
      vertex 48.2115 -58.4909 -1.94761
      vertex 58.4909 -48.2115 -1.94761
      vertex 57.9593 -48.7431 -3.7625
    endloop
  endfacet
  facet normal -0.707107 0.707107 -2.79841e-15
    outer loop
      vertex 48.7431 -57.9593 -3.7625
      vertex 57.9593 -48.7431 -3.7625
      vertex 57.1137 -49.5887 -5.32098
    endloop
  endfacet
  facet normal -0.707107 0.707107 4.46661e-15
    outer loop
      vertex 49.5887 -57.1137 -5.32098
      vertex 57.1137 -49.5887 -5.32098
      vertex 56.0117 -50.6907 -6.51684
    endloop
  endfacet
  facet normal -0.707107 0.707107 0
    outer loop
      vertex 50.6907 -56.0117 -6.51684
      vertex 56.0117 -50.6907 -6.51684
      vertex 54.7284 -51.974 -7.26859
    endloop
  endfacet
  facet normal -0.707107 0.707107 0
    outer loop
      vertex 51.974 -54.7284 -7.26859
      vertex 54.7284 -51.974 -7.26859
      vertex 53.3512 -53.3512 -7.525
    endloop
  endfacet
  facet normal -0.707107 0.707107 0
    outer loop
      vertex 54.7284 -51.974 -7.26859
      vertex 51.974 -54.7284 -7.26859
      vertex 50.6907 -56.0117 -6.51684
    endloop
  endfacet
  facet normal -0.707107 0.707107 3.94795e-15
    outer loop
      vertex 56.0117 -50.6907 -6.51684
      vertex 50.6907 -56.0117 -6.51684
      vertex 49.5887 -57.1137 -5.32098
    endloop
  endfacet
  facet normal -0.707107 0.707107 -3.42734e-15
    outer loop
      vertex 57.1137 -49.5887 -5.32098
      vertex 49.5887 -57.1137 -5.32098
      vertex 48.7431 -57.9593 -3.7625
    endloop
  endfacet
  facet normal -0.707107 0.707107 2.77853e-15
    outer loop
      vertex 48.2115 -58.4909 -1.94761
      vertex 57.9593 -48.7431 -3.7625
      vertex 48.7431 -57.9593 -3.7625
    endloop
  endfacet
  facet normal -0.707107 0.707107 -2.58019e-15
    outer loop
      vertex 58.4909 -48.2115 -1.94761
      vertex 48.2115 -58.4909 -1.94761
      vertex 58.6722 -48.0302 0
    endloop
  endfacet
  facet normal -0.707107 0.707107 -2.4241e-15
    outer loop
      vertex 58.6722 -48.0302 0
      vertex 48.2115 -58.4909 -1.94761
      vertex 48.0302 -58.6722 0
    endloop
  endfacet
  facet normal 0.707107 -0.707107 3.63064e-05
    outer loop
      vertex 49.6258 -59.9051 -1.94761
      vertex 59.9051 -49.6258 -1.94761
      vertex 60.0864 -49.4444 0
    endloop
  endfacet
  facet normal 0.707107 -0.707107 -3.89614e-05
    outer loop
      vertex 59.9051 -49.6258 -1.94761
      vertex 49.6258 -59.9051 -1.94761
      vertex 59.3735 -50.1573 -3.7625
    endloop
  endfacet
  facet normal 0.707107 -0.707107 0
    outer loop
      vertex 59.3735 -50.1573 -3.7625
      vertex 50.1573 -59.3735 -3.7625
      vertex 58.5279 -51.0029 -5.32098
    endloop
  endfacet
  facet normal 0.707107 -0.707107 0
    outer loop
      vertex 51.0029 -58.5279 -5.32098
      vertex 58.5279 -51.0029 -5.32098
      vertex 50.1573 -59.3735 -3.7625
    endloop
  endfacet
  facet normal 0.707107 -0.707107 0
    outer loop
      vertex 52.1049 -57.4259 -6.51684
      vertex 57.4259 -52.1049 -6.51684
      vertex 51.0029 -58.5279 -5.32098
    endloop
  endfacet
  facet normal 0.707107 -0.707107 0
    outer loop
      vertex 57.4259 -52.1049 -6.51684
      vertex 52.1049 -57.4259 -6.51684
      vertex 56.1426 -53.3882 -7.26859
    endloop
  endfacet
  facet normal 0.707107 -0.707107 0
    outer loop
      vertex 56.1426 -53.3882 -7.26859
      vertex 53.3882 -56.1426 -7.26859
      vertex 54.7654 -54.7654 -7.525
    endloop
  endfacet
  facet normal 0.707107 -0.707107 0
    outer loop
      vertex 53.3882 -56.1426 -7.26859
      vertex 56.1426 -53.3882 -7.26859
      vertex 52.1049 -57.4259 -6.51684
    endloop
  endfacet
  facet normal 0.707107 -0.707107 0
    outer loop
      vertex 58.5279 -51.0029 -5.32098
      vertex 51.0029 -58.5279 -5.32098
      vertex 57.4259 -52.1049 -6.51684
    endloop
  endfacet
  facet normal 0.707107 -0.707107 -3.89614e-05
    outer loop
      vertex 59.3735 -50.1573 -3.7625
      vertex 49.6258 -59.9051 -1.94761
      vertex 50.1573 -59.3735 -3.7625
    endloop
  endfacet
  facet normal 0.707107 -0.707107 3.63064e-05
    outer loop
      vertex 49.6258 -59.9051 -1.94761
      vertex 60.0864 -49.4444 0
      vertex 49.4444 -60.0864 0
    endloop
  endfacet
  facet normal -0.707107 0.707107 3.89614e-05
    outer loop
      vertex 65.9953 -76.2746 -1.94761
      vertex 76.2746 -65.9953 -1.94761
      vertex 75.743 -66.5268 -3.7625
    endloop
  endfacet
  facet normal -0.707107 0.707107 -6.29643e-15
    outer loop
      vertex 66.5268 -75.743 -3.7625
      vertex 75.743 -66.5268 -3.7625
      vertex 74.8974 -67.3724 -5.32098
    endloop
  endfacet
  facet normal -0.707107 0.707107 0
    outer loop
      vertex 67.3724 -74.8974 -5.32098
      vertex 74.8974 -67.3724 -5.32098
      vertex 73.7954 -68.4744 -6.51684
    endloop
  endfacet
  facet normal -0.707107 0.707107 -9.40614e-05
    outer loop
      vertex 68.4744 -73.7954 -6.51684
      vertex 73.7954 -68.4744 -6.51684
      vertex 72.5121 -69.7578 -7.26859
    endloop
  endfacet
  facet normal -0.707107 0.707107 0.000275772
    outer loop
      vertex 69.7578 -72.5121 -7.26859
      vertex 72.5121 -69.7578 -7.26859
      vertex 71.1349 -71.1349 -7.525
    endloop
  endfacet
  facet normal -0.707107 0.707107 -9.40614e-05
    outer loop
      vertex 72.5121 -69.7578 -7.26859
      vertex 69.7578 -72.5121 -7.26859
      vertex 68.4744 -73.7954 -6.51684
    endloop
  endfacet
  facet normal -0.707107 0.707107 0
    outer loop
      vertex 73.7954 -68.4744 -6.51684
      vertex 68.4744 -73.7954 -6.51684
      vertex 67.3724 -74.8974 -5.32098
    endloop
  endfacet
  facet normal -0.707107 0.707107 -6.42627e-15
    outer loop
      vertex 74.8974 -67.3724 -5.32098
      vertex 67.3724 -74.8974 -5.32098
      vertex 66.5268 -75.743 -3.7625
    endloop
  endfacet
  facet normal -0.707107 0.707107 3.89614e-05
    outer loop
      vertex 65.9953 -76.2746 -1.94761
      vertex 75.743 -66.5268 -3.7625
      vertex 66.5268 -75.743 -3.7625
    endloop
  endfacet
  facet normal -0.707107 0.707107 -5.16043e-15
    outer loop
      vertex 76.2746 -65.9953 -1.94761
      vertex 65.9953 -76.2746 -1.94761
      vertex 76.4559 -65.814 0
    endloop
  endfacet
  facet normal -0.707107 0.707107 -5.33306e-15
    outer loop
      vertex 76.4559 -65.814 0
      vertex 65.9953 -76.2746 -1.94761
      vertex 65.814 -76.4559 0
    endloop
  endfacet
  facet normal 0.707107 -0.707107 0
    outer loop
      vertex 67.4095 -77.6888 -1.94761
      vertex 77.6888 -67.4095 -1.94761
      vertex 77.8701 -67.2282 0
    endloop
  endfacet
  facet normal 0.707107 -0.707107 3.89614e-05
    outer loop
      vertex 77.6888 -67.4095 -1.94761
      vertex 67.4095 -77.6888 -1.94761
      vertex 77.1573 -67.9411 -3.7625
    endloop
  endfacet
  facet normal 0.707107 -0.707107 -6.42761e-15
    outer loop
      vertex 77.1573 -67.9411 -3.7625
      vertex 67.9411 -77.1573 -3.7625
      vertex 76.3117 -68.7867 -5.32098
    endloop
  endfacet
  facet normal 0.707107 -0.707107 -6.47982e-15
    outer loop
      vertex 68.7867 -76.3117 -5.32098
      vertex 76.3117 -68.7867 -5.32098
      vertex 67.9411 -77.1573 -3.7625
    endloop
  endfacet
  facet normal 0.707107 -0.707107 -5.91296e-05
    outer loop
      vertex 69.8887 -75.2096 -6.51684
      vertex 75.2096 -69.8887 -6.51684
      vertex 68.7867 -76.3117 -5.32098
    endloop
  endfacet
  facet normal 0.707107 -0.707107 0
    outer loop
      vertex 75.2096 -69.8887 -6.51684
      vertex 69.8887 -75.2096 -6.51684
      vertex 73.9263 -71.172 -7.26859
    endloop
  endfacet
  facet normal 0.707107 -0.707107 0.000275772
    outer loop
      vertex 73.9263 -71.172 -7.26859
      vertex 71.172 -73.9263 -7.26859
      vertex 72.5492 -72.5492 -7.525
    endloop
  endfacet
  facet normal 0.707107 -0.707107 0
    outer loop
      vertex 71.172 -73.9263 -7.26859
      vertex 73.9263 -71.172 -7.26859
      vertex 69.8887 -75.2096 -6.51684
    endloop
  endfacet
  facet normal 0.707107 -0.707107 -5.91296e-05
    outer loop
      vertex 76.3117 -68.7867 -5.32098
      vertex 68.7867 -76.3117 -5.32098
      vertex 75.2096 -69.8887 -6.51684
    endloop
  endfacet
  facet normal 0.707107 -0.707107 3.89614e-05
    outer loop
      vertex 77.1573 -67.9411 -3.7625
      vertex 67.4095 -77.6888 -1.94761
      vertex 67.9411 -77.1573 -3.7625
    endloop
  endfacet
  facet normal 0.707107 -0.707107 0
    outer loop
      vertex 67.4095 -77.6888 -1.94761
      vertex 77.8701 -67.2282 0
      vertex 67.2282 -77.8701 0
    endloop
  endfacet
  facet normal -0.707107 0.707107 -3.89614e-05
    outer loop
      vertex 83.779 -94.0583 -1.94761
      vertex 94.0583 -83.779 -1.94761
      vertex 93.5268 -84.3106 -3.7625
    endloop
  endfacet
  facet normal -0.707107 0.707107 -6.29643e-15
    outer loop
      vertex 84.3106 -93.5268 -3.7625
      vertex 93.5268 -84.3106 -3.7625
      vertex 92.6812 -85.1562 -5.32098
    endloop
  endfacet
  facet normal -0.707107 0.707107 0
    outer loop
      vertex 85.1562 -92.6812 -5.32098
      vertex 92.6812 -85.1562 -5.32098
      vertex 91.5792 -86.2582 -6.51684
    endloop
  endfacet
  facet normal -0.707107 0.707107 9.40614e-05
    outer loop
      vertex 86.2582 -91.5792 -6.51684
      vertex 91.5792 -86.2582 -6.51684
      vertex 90.2958 -87.5415 -7.26859
    endloop
  endfacet
  facet normal -0.707107 0.707107 -0.000275772
    outer loop
      vertex 87.5415 -90.2958 -7.26859
      vertex 90.2958 -87.5415 -7.26859
      vertex 88.9187 -88.9187 -7.525
    endloop
  endfacet
  facet normal -0.707107 0.707107 9.40614e-05
    outer loop
      vertex 90.2958 -87.5415 -7.26859
      vertex 87.5415 -90.2958 -7.26859
      vertex 86.2582 -91.5792 -6.51684
    endloop
  endfacet
  facet normal -0.707107 0.707107 0
    outer loop
      vertex 91.5792 -86.2582 -6.51684
      vertex 86.2582 -91.5792 -6.51684
      vertex 85.1562 -92.6812 -5.32098
    endloop
  endfacet
  facet normal -0.707107 0.707107 -6.42627e-15
    outer loop
      vertex 92.6812 -85.1562 -5.32098
      vertex 85.1562 -92.6812 -5.32098
      vertex 84.3106 -93.5268 -3.7625
    endloop
  endfacet
  facet normal -0.707107 0.707107 -3.89614e-05
    outer loop
      vertex 83.779 -94.0583 -1.94761
      vertex 93.5268 -84.3106 -3.7625
      vertex 84.3106 -93.5268 -3.7625
    endloop
  endfacet
  facet normal -0.707107 0.707107 3.63064e-05
    outer loop
      vertex 94.0583 -83.779 -1.94761
      vertex 83.779 -94.0583 -1.94761
      vertex 94.2397 -83.5977 0
    endloop
  endfacet
  facet normal -0.707107 0.707107 3.63064e-05
    outer loop
      vertex 94.2397 -83.5977 0
      vertex 83.779 -94.0583 -1.94761
      vertex 83.5977 -94.2397 0
    endloop
  endfacet
  facet normal 0.707107 -0.707107 5.01921e-15
    outer loop
      vertex 85.1932 -95.4726 -1.94761
      vertex 95.4726 -85.1932 -1.94761
      vertex 95.6539 -85.0119 0
    endloop
  endfacet
  facet normal 0.707107 -0.707107 0
    outer loop
      vertex 95.4726 -85.1932 -1.94761
      vertex 85.1932 -95.4726 -1.94761
      vertex 94.941 -85.7248 -3.7625
    endloop
  endfacet
  facet normal 0.707107 -0.707107 0
    outer loop
      vertex 94.941 -85.7248 -3.7625
      vertex 85.7248 -94.941 -3.7625
      vertex 94.0954 -86.5704 -5.32098
    endloop
  endfacet
  facet normal 0.707107 -0.707107 0
    outer loop
      vertex 86.5704 -94.0954 -5.32098
      vertex 94.0954 -86.5704 -5.32098
      vertex 85.7248 -94.941 -3.7625
    endloop
  endfacet
  facet normal 0.707107 -0.707107 -8.38939e-15
    outer loop
      vertex 87.6724 -92.9934 -6.51684
      vertex 92.9934 -87.6724 -6.51684
      vertex 86.5704 -94.0954 -5.32098
    endloop
  endfacet
  facet normal 0.707107 -0.707107 0
    outer loop
      vertex 92.9934 -87.6724 -6.51684
      vertex 87.6724 -92.9934 -6.51684
      vertex 91.7101 -88.9557 -7.26859
    endloop
  endfacet
  facet normal 0.707107 -0.707107 0
    outer loop
      vertex 91.7101 -88.9557 -7.26859
      vertex 88.9557 -91.7101 -7.26859
      vertex 90.3329 -90.3329 -7.525
    endloop
  endfacet
  facet normal 0.707107 -0.707107 0
    outer loop
      vertex 88.9557 -91.7101 -7.26859
      vertex 91.7101 -88.9557 -7.26859
      vertex 87.6724 -92.9934 -6.51684
    endloop
  endfacet
  facet normal 0.707107 -0.707107 -8.3749e-15
    outer loop
      vertex 94.0954 -86.5704 -5.32098
      vertex 86.5704 -94.0954 -5.32098
      vertex 92.9934 -87.6724 -6.51684
    endloop
  endfacet
  facet normal 0.707107 -0.707107 0
    outer loop
      vertex 94.941 -85.7248 -3.7625
      vertex 85.1932 -95.4726 -1.94761
      vertex 85.7248 -94.941 -3.7625
    endloop
  endfacet
  facet normal 0.707107 -0.707107 5.15878e-15
    outer loop
      vertex 85.1932 -95.4726 -1.94761
      vertex 95.6539 -85.0119 0
      vertex 85.0119 -95.6539 0
    endloop
  endfacet
  facet normal -0.707107 0.707107 0
    outer loop
      vertex 101.563 -111.842 -1.94761
      vertex 111.842 -101.563 -1.94761
      vertex 111.311 -102.094 -3.7625
    endloop
  endfacet
  facet normal -0.707107 0.707107 0
    outer loop
      vertex 102.094 -111.311 -3.7625
      vertex 111.311 -102.094 -3.7625
      vertex 110.465 -102.94 -5.32098
    endloop
  endfacet
  facet normal -0.707107 0.707107 0
    outer loop
      vertex 102.94 -110.465 -5.32098
      vertex 110.465 -102.94 -5.32098
      vertex 109.363 -104.042 -6.51684
    endloop
  endfacet
  facet normal -0.707107 0.707107 0
    outer loop
      vertex 104.042 -109.363 -6.51684
      vertex 109.363 -104.042 -6.51684
      vertex 108.08 -105.325 -7.26859
    endloop
  endfacet
  facet normal -0.707104 0.707104 0.00275771
    outer loop
      vertex 105.325 -108.08 -7.26859
      vertex 108.08 -105.325 -7.26859
      vertex 106.702 -106.702 -7.525
    endloop
  endfacet
  facet normal -0.707107 0.707107 0
    outer loop
      vertex 108.08 -105.325 -7.26859
      vertex 105.325 -108.08 -7.26859
      vertex 104.042 -109.363 -6.51684
    endloop
  endfacet
  facet normal -0.707107 0.707107 0
    outer loop
      vertex 109.363 -104.042 -6.51684
      vertex 104.042 -109.363 -6.51684
      vertex 102.94 -110.465 -5.32098
    endloop
  endfacet
  facet normal -0.707107 0.707107 0
    outer loop
      vertex 110.465 -102.94 -5.32098
      vertex 102.94 -110.465 -5.32098
      vertex 102.094 -111.311 -3.7625
    endloop
  endfacet
  facet normal -0.707107 0.707107 0
    outer loop
      vertex 101.563 -111.842 -1.94761
      vertex 111.311 -102.094 -3.7625
      vertex 102.094 -111.311 -3.7625
    endloop
  endfacet
  facet normal -0.707107 0.707107 -0.000363064
    outer loop
      vertex 111.842 -101.563 -1.94761
      vertex 101.563 -111.842 -1.94761
      vertex 112.023 -101.381 0
    endloop
  endfacet
  facet normal -0.707107 0.707107 -0.000363064
    outer loop
      vertex 112.023 -101.381 0
      vertex 101.563 -111.842 -1.94761
      vertex 101.381 -112.023 0
    endloop
  endfacet
  facet normal 0.707107 -0.707107 -0.000363064
    outer loop
      vertex 102.977 -113.256 -1.94761
      vertex 113.256 -102.977 -1.94761
      vertex 113.438 -102.796 0
    endloop
  endfacet
  facet normal 0.707107 -0.707107 0.000389614
    outer loop
      vertex 113.256 -102.977 -1.94761
      vertex 102.977 -113.256 -1.94761
      vertex 112.725 -103.509 -3.7625
    endloop
  endfacet
  facet normal 0.707107 -0.707107 -0.000453716
    outer loop
      vertex 112.725 -103.509 -3.7625
      vertex 103.509 -112.725 -3.7625
      vertex 111.879 -104.354 -5.32098
    endloop
  endfacet
  facet normal 0.707107 -0.707107 -0.000453716
    outer loop
      vertex 104.354 -111.879 -5.32098
      vertex 111.879 -104.354 -5.32098
      vertex 103.509 -112.725 -3.7625
    endloop
  endfacet
  facet normal 0.707107 -0.707107 0
    outer loop
      vertex 105.456 -110.777 -6.51684
      vertex 110.777 -105.456 -6.51684
      vertex 104.354 -111.879 -5.32098
    endloop
  endfacet
  facet normal 0.707107 -0.707107 0
    outer loop
      vertex 110.777 -105.456 -6.51684
      vertex 105.456 -110.777 -6.51684
      vertex 109.494 -106.739 -7.26859
    endloop
  endfacet
  facet normal 0.707104 -0.707104 0.00275771
    outer loop
      vertex 109.494 -106.739 -7.26859
      vertex 106.739 -109.494 -7.26859
      vertex 108.117 -108.117 -7.525
    endloop
  endfacet
  facet normal 0.707107 -0.707107 0
    outer loop
      vertex 106.739 -109.494 -7.26859
      vertex 109.494 -106.739 -7.26859
      vertex 105.456 -110.777 -6.51684
    endloop
  endfacet
  facet normal 0.707107 -0.707107 0
    outer loop
      vertex 111.879 -104.354 -5.32098
      vertex 104.354 -111.879 -5.32098
      vertex 110.777 -105.456 -6.51684
    endloop
  endfacet
  facet normal 0.707107 -0.707107 0.000389614
    outer loop
      vertex 112.725 -103.509 -3.7625
      vertex 102.977 -113.256 -1.94761
      vertex 103.509 -112.725 -3.7625
    endloop
  endfacet
  facet normal 0.707107 -0.707107 -0.000363064
    outer loop
      vertex 102.977 -113.256 -1.94761
      vertex 113.438 -102.796 0
      vertex 102.796 -113.438 0
    endloop
  endfacet
  facet normal -0.707107 0.707107 5.38594e-15
    outer loop
      vertex 119.346 -129.626 -1.94761
      vertex 129.626 -119.346 -1.94761
      vertex 129.094 -119.878 -3.7625
    endloop
  endfacet
  facet normal -0.707107 0.707107 -0.000453716
    outer loop
      vertex 119.878 -129.094 -3.7625
      vertex 129.094 -119.878 -3.7625
      vertex 128.249 -120.724 -5.32098
    endloop
  endfacet
  facet normal -0.707107 0.707107 0
    outer loop
      vertex 120.724 -128.249 -5.32098
      vertex 128.249 -120.724 -5.32098
      vertex 127.147 -121.826 -6.51684
    endloop
  endfacet
  facet normal -0.707106 0.707106 0.000940614
    outer loop
      vertex 121.826 -127.147 -6.51684
      vertex 127.147 -121.826 -6.51684
      vertex 125.863 -123.109 -7.26859
    endloop
  endfacet
  facet normal -0.707107 0.707107 -3.95773e-14
    outer loop
      vertex 123.109 -125.863 -7.26859
      vertex 125.863 -123.109 -7.26859
      vertex 124.486 -124.486 -7.525
    endloop
  endfacet
  facet normal -0.707106 0.707106 0.000940614
    outer loop
      vertex 125.863 -123.109 -7.26859
      vertex 123.109 -125.863 -7.26859
      vertex 121.826 -127.147 -6.51684
    endloop
  endfacet
  facet normal -0.707107 0.707107 0
    outer loop
      vertex 127.147 -121.826 -6.51684
      vertex 121.826 -127.147 -6.51684
      vertex 120.724 -128.249 -5.32098
    endloop
  endfacet
  facet normal -0.707107 0.707107 -0.000453716
    outer loop
      vertex 128.249 -120.724 -5.32098
      vertex 120.724 -128.249 -5.32098
      vertex 119.878 -129.094 -3.7625
    endloop
  endfacet
  facet normal -0.707107 0.707107 5.55718e-15
    outer loop
      vertex 119.346 -129.626 -1.94761
      vertex 129.094 -119.878 -3.7625
      vertex 119.878 -129.094 -3.7625
    endloop
  endfacet
  facet normal -0.707107 0.707107 -5.16007e-15
    outer loop
      vertex 129.626 -119.346 -1.94761
      vertex 119.346 -129.626 -1.94761
      vertex 129.807 -119.165 0
    endloop
  endfacet
  facet normal -0.707107 0.707107 -5.33301e-15
    outer loop
      vertex 129.807 -119.165 0
      vertex 119.346 -129.626 -1.94761
      vertex 119.165 -129.807 0
    endloop
  endfacet
  facet normal 0.707107 -0.707107 0.000363064
    outer loop
      vertex 120.761 -131.04 -1.94761
      vertex 131.04 -120.761 -1.94761
      vertex 131.221 -120.579 0
    endloop
  endfacet
  facet normal 0.707107 -0.707107 -0.000389614
    outer loop
      vertex 131.04 -120.761 -1.94761
      vertex 120.761 -131.04 -1.94761
      vertex 130.508 -121.292 -3.7625
    endloop
  endfacet
  facet normal 0.707107 -0.707107 0.000453716
    outer loop
      vertex 130.508 -121.292 -3.7625
      vertex 121.292 -130.508 -3.7625
      vertex 129.663 -122.138 -5.32098
    endloop
  endfacet
  facet normal 0.707107 -0.707107 0.000453716
    outer loop
      vertex 122.138 -129.663 -5.32098
      vertex 129.663 -122.138 -5.32098
      vertex 121.292 -130.508 -3.7625
    endloop
  endfacet
  facet normal 0.707107 -0.707107 -8.38939e-15
    outer loop
      vertex 123.24 -128.561 -6.51684
      vertex 128.561 -123.24 -6.51684
      vertex 122.138 -129.663 -5.32098
    endloop
  endfacet
  facet normal 0.707107 -0.707107 0
    outer loop
      vertex 128.561 -123.24 -6.51684
      vertex 123.24 -128.561 -6.51684
      vertex 127.278 -124.523 -7.26859
    endloop
  endfacet
  facet normal 0.707104 -0.707104 -0.00275771
    outer loop
      vertex 127.278 -124.523 -7.26859
      vertex 124.523 -127.278 -7.26859
      vertex 125.9 -125.9 -7.525
    endloop
  endfacet
  facet normal 0.707107 -0.707107 0
    outer loop
      vertex 124.523 -127.278 -7.26859
      vertex 127.278 -124.523 -7.26859
      vertex 123.24 -128.561 -6.51684
    endloop
  endfacet
  facet normal 0.707107 -0.707107 -8.3749e-15
    outer loop
      vertex 129.663 -122.138 -5.32098
      vertex 122.138 -129.663 -5.32098
      vertex 128.561 -123.24 -6.51684
    endloop
  endfacet
  facet normal 0.707107 -0.707107 -0.000389614
    outer loop
      vertex 130.508 -121.292 -3.7625
      vertex 120.761 -131.04 -1.94761
      vertex 121.292 -130.508 -3.7625
    endloop
  endfacet
  facet normal 0.707107 -0.707107 0.000363064
    outer loop
      vertex 120.761 -131.04 -1.94761
      vertex 131.221 -120.579 0
      vertex 120.579 -131.221 0
    endloop
  endfacet
  facet normal 0 0 1
    outer loop
      vertex 150.419 -136.949 0
      vertex 131.221 -120.579 0
      vertex 149.005 -138.363 0
    endloop
  endfacet
  facet normal 0 0 1
    outer loop
      vertex 150.419 -136.949 0
      vertex 129.807 -119.165 0
      vertex 131.221 -120.579 0
    endloop
  endfacet
  facet normal 0 0 1
    outer loop
      vertex 150.419 -136.949 0
      vertex 113.438 -102.796 0
      vertex 129.807 -119.165 0
    endloop
  endfacet
  facet normal 0 0 1
    outer loop
      vertex 150.419 -136.949 0
      vertex 112.023 -101.381 0
      vertex 113.438 -102.796 0
    endloop
  endfacet
  facet normal 0 0 1
    outer loop
      vertex 150.419 -136.949 0
      vertex 95.6539 -85.0119 0
      vertex 112.023 -101.381 0
    endloop
  endfacet
  facet normal 0 0 1
    outer loop
      vertex 150.419 -136.949 0
      vertex 94.2397 -83.5977 0
      vertex 95.6539 -85.0119 0
    endloop
  endfacet
  facet normal 0 0 1
    outer loop
      vertex 150.419 -136.949 0
      vertex 77.8701 -67.2282 0
      vertex 94.2397 -83.5977 0
    endloop
  endfacet
  facet normal 0 0 1
    outer loop
      vertex 150.419 -136.949 0
      vertex 76.4559 -65.814 0
      vertex 77.8701 -67.2282 0
    endloop
  endfacet
  facet normal 0 0 1
    outer loop
      vertex 150.419 -136.949 0
      vertex 60.0864 -49.4444 0
      vertex 76.4559 -65.814 0
    endloop
  endfacet
  facet normal 0 0 1
    outer loop
      vertex 6.73519 6.73519 0
      vertex 60.0864 -49.4444 0
      vertex 150.419 -136.949 0
    endloop
  endfacet
  facet normal 0 0 1
    outer loop
      vertex 60.0864 -49.4444 0
      vertex 6.73519 6.73519 0
      vertex 58.6722 -48.0302 0
    endloop
  endfacet
  facet normal 0 0 1
    outer loop
      vertex 58.6722 -48.0302 0
      vertex 6.73519 6.73519 0
      vertex 42.3027 -31.6607 0
    endloop
  endfacet
  facet normal 0 0 1
    outer loop
      vertex 42.3027 -31.6607 0
      vertex 6.73519 6.73519 0
      vertex 40.8885 -30.2465 0
    endloop
  endfacet
  facet normal 0 0 1
    outer loop
      vertex 40.8885 -30.2465 0
      vertex 6.73519 6.73519 0
      vertex 24.5189 -13.877 0
    endloop
  endfacet
  facet normal 0 0 1
    outer loop
      vertex 24.5189 -13.877 0
      vertex 6.73519 6.73519 0
      vertex 23.1047 -12.4628 0
    endloop
  endfacet
  facet normal 0 0 1
    outer loop
      vertex 6.73519 6.73519 0
      vertex 6.73519 3.90676 0
      vertex 23.1047 -12.4628 0
    endloop
  endfacet
  facet normal 0 0 1
    outer loop
      vertex 6.73519 6.73519 0
      vertex -3.90676 -6.73519 0
      vertex 6.73519 3.90676 0
    endloop
  endfacet
  facet normal 0 -0 1
    outer loop
      vertex -3.90676 -6.73519 0
      vertex 6.73519 6.73519 0
      vertex -6.73519 -6.73519 0
    endloop
  endfacet
  facet normal 0 0 1
    outer loop
      vertex 129.807 -119.165 0
      vertex 120.579 -131.221 0
      vertex 131.221 -120.579 0
    endloop
  endfacet
  facet normal 0 -0 1
    outer loop
      vertex 120.579 -131.221 0
      vertex 129.807 -119.165 0
      vertex 119.165 -129.807 0
    endloop
  endfacet
  facet normal 0 0 1
    outer loop
      vertex 120.579 -131.221 0
      vertex 136.949 -150.419 0
      vertex 138.363 -149.005 0
    endloop
  endfacet
  facet normal 0 0 1
    outer loop
      vertex 119.165 -129.807 0
      vertex 136.949 -150.419 0
      vertex 120.579 -131.221 0
    endloop
  endfacet
  facet normal 0 0 1
    outer loop
      vertex 102.796 -113.438 0
      vertex 136.949 -150.419 0
      vertex 119.165 -129.807 0
    endloop
  endfacet
  facet normal 0 0 1
    outer loop
      vertex 101.381 -112.023 0
      vertex 136.949 -150.419 0
      vertex 102.796 -113.438 0
    endloop
  endfacet
  facet normal 0 0 1
    outer loop
      vertex 85.0119 -95.6539 0
      vertex 136.949 -150.419 0
      vertex 101.381 -112.023 0
    endloop
  endfacet
  facet normal 0 0 1
    outer loop
      vertex 83.5977 -94.2397 0
      vertex 136.949 -150.419 0
      vertex 85.0119 -95.6539 0
    endloop
  endfacet
  facet normal 0 0 1
    outer loop
      vertex 67.2282 -77.8701 0
      vertex 136.949 -150.419 0
      vertex 83.5977 -94.2397 0
    endloop
  endfacet
  facet normal 0 0 1
    outer loop
      vertex 65.814 -76.4559 0
      vertex 136.949 -150.419 0
      vertex 67.2282 -77.8701 0
    endloop
  endfacet
  facet normal 0 0 1
    outer loop
      vertex 49.4444 -60.0864 0
      vertex 136.949 -150.419 0
      vertex 65.814 -76.4559 0
    endloop
  endfacet
  facet normal 0 0 1
    outer loop
      vertex -6.73519 -6.73519 0
      vertex 49.4444 -60.0864 0
      vertex 48.0302 -58.6722 0
    endloop
  endfacet
  facet normal 0 0 1
    outer loop
      vertex -6.73519 -6.73519 0
      vertex 48.0302 -58.6722 0
      vertex 31.6607 -42.3027 0
    endloop
  endfacet
  facet normal 0 0 1
    outer loop
      vertex -6.73519 -6.73519 0
      vertex 31.6607 -42.3027 0
      vertex 30.2465 -40.8885 0
    endloop
  endfacet
  facet normal 0 0 1
    outer loop
      vertex -6.73519 -6.73519 0
      vertex 30.2465 -40.8885 0
      vertex 13.877 -24.5189 0
    endloop
  endfacet
  facet normal 0 0 1
    outer loop
      vertex -6.73519 -6.73519 0
      vertex 13.877 -24.5189 0
      vertex 12.4628 -23.1047 0
    endloop
  endfacet
  facet normal -0 0 1
    outer loop
      vertex -6.73519 -6.73519 0
      vertex 12.4628 -23.1047 0
      vertex -3.90676 -6.73519 0
    endloop
  endfacet
  facet normal 0 0 1
    outer loop
      vertex 49.4444 -60.0864 0
      vertex -6.73519 -6.73519 0
      vertex 136.949 -150.419 0
    endloop
  endfacet
  facet normal 0 0 1
    outer loop
      vertex 23.1047 -12.4628 0
      vertex 13.877 -24.5189 0
      vertex 24.5189 -13.877 0
    endloop
  endfacet
  facet normal 0 -0 1
    outer loop
      vertex 13.877 -24.5189 0
      vertex 23.1047 -12.4628 0
      vertex 12.4628 -23.1047 0
    endloop
  endfacet
  facet normal 0 0 1
    outer loop
      vertex 40.8885 -30.2465 0
      vertex 31.6607 -42.3027 0
      vertex 42.3027 -31.6607 0
    endloop
  endfacet
  facet normal 0 -0 1
    outer loop
      vertex 31.6607 -42.3027 0
      vertex 40.8885 -30.2465 0
      vertex 30.2465 -40.8885 0
    endloop
  endfacet
  facet normal 0 0 1
    outer loop
      vertex 58.6722 -48.0302 0
      vertex 49.4444 -60.0864 0
      vertex 60.0864 -49.4444 0
    endloop
  endfacet
  facet normal 0 -0 1
    outer loop
      vertex 49.4444 -60.0864 0
      vertex 58.6722 -48.0302 0
      vertex 48.0302 -58.6722 0
    endloop
  endfacet
  facet normal 0 0 1
    outer loop
      vertex 76.4559 -65.814 0
      vertex 67.2282 -77.8701 0
      vertex 77.8701 -67.2282 0
    endloop
  endfacet
  facet normal 0 -0 1
    outer loop
      vertex 67.2282 -77.8701 0
      vertex 76.4559 -65.814 0
      vertex 65.814 -76.4559 0
    endloop
  endfacet
  facet normal 0 0 1
    outer loop
      vertex 94.2397 -83.5977 0
      vertex 85.0119 -95.6539 0
      vertex 95.6539 -85.0119 0
    endloop
  endfacet
  facet normal 0 -0 1
    outer loop
      vertex 85.0119 -95.6539 0
      vertex 94.2397 -83.5977 0
      vertex 83.5977 -94.2397 0
    endloop
  endfacet
  facet normal 0 0 1
    outer loop
      vertex 112.023 -101.381 0
      vertex 102.796 -113.438 0
      vertex 113.438 -102.796 0
    endloop
  endfacet
  facet normal 0 -0 1
    outer loop
      vertex 102.796 -113.438 0
      vertex 112.023 -101.381 0
      vertex 101.381 -112.023 0
    endloop
  endfacet
endsolid OpenSCAD_Model
