  0
SECTION
  2
BLOCKS
  0
ENDSEC
  0
SECTION
  2
ENTITIES
  0
LINE
  8
0
 10
45.72
 20
0
 11
68.58
 21
0
  0
LINE
  8
0
 10
68.58
 20
0
 11
68.58
 21
-3
  0
LINE
  8
0
 10
68.58
 20
-3
 11
91.44
 21
-3
  0
LINE
  8
0
 10
91.44
 20
-3
 11
91.44
 21
0
  0
LINE
  8
0
 10
91.44
 20
0
 11
114.3
 21
0
  0
LINE
  8
0
 10
114.3
 20
0
 11
114.3
 21
69.85
  0
LINE
  8
0
 10
114.3
 20
69.85
 11
93.409
 21
69.85
  0
LINE
  8
0
 10
93.409
 20
69.85
 11
99.8127
 21
22.225
  0
LINE
  8
0
 10
99.8127
 20
22.225
 11
76.2
 21
19.05
  0
LINE
  8
0
 10
76.2
 20
19.05
 11
69.3694
 21
69.85
  0
LINE
  8
0
 10
69.3694
 20
69.85
 11
55.8354
 21
69.85
  0
LINE
  8
0
 10
55.8354
 20
69.85
 11
62.4553
 21
20.6172
  0
LINE
  8
0
 10
62.4553
 20
20.6172
 11
50.8
 21
19.05
  0
LINE
  8
0
 10
50.8
 20
19.05
 11
43.9694
 21
69.85
  0
LINE
  8
0
 10
43.9694
 20
69.85
 11
0
 21
69.85
  0
LINE
  8
0
 10
0
 20
69.85
 11
0
 21
0
  0
LINE
  8
0
 10
0
 20
0
 11
22.86
 21
0
  0
LINE
  8
0
 10
22.86
 20
0
 11
22.86
 21
-3
  0
LINE
  8
0
 10
22.86
 20
-3
 11
45.72
 21
-3
  0
LINE
  8
0
 10
45.72
 20
-3
 11
45.72
 21
0
  0
LINE
  8
0
 10
166.02
 20
0
 11
188.88
 21
0
  0
LINE
  8
0
 10
188.88
 20
0
 11
188.88
 21
-3
  0
LINE
  8
0
 10
188.88
 20
-3
 11
211.74
 21
-3
  0
LINE
  8
0
 10
211.74
 20
-3
 11
211.74
 21
0
  0
LINE
  8
0
 10
211.74
 20
0
 11
234.6
 21
0
  0
LINE
  8
0
 10
234.6
 20
0
 11
234.6
 21
69.85
  0
LINE
  8
0
 10
234.6
 20
69.85
 11
213.709
 21
69.85
  0
LINE
  8
0
 10
213.709
 20
69.85
 11
220.113
 21
22.225
  0
LINE
  8
0
 10
220.113
 20
22.225
 11
196.5
 21
19.05
  0
LINE
  8
0
 10
196.5
 20
19.05
 11
189.669
 21
69.85
  0
LINE
  8
0
 10
189.669
 20
69.85
 11
176.135
 21
69.85
  0
LINE
  8
0
 10
176.135
 20
69.85
 11
182.755
 21
20.6172
  0
LINE
  8
0
 10
182.755
 20
20.6172
 11
171.1
 21
19.05
  0
LINE
  8
0
 10
171.1
 20
19.05
 11
164.269
 21
69.85
  0
LINE
  8
0
 10
164.269
 20
69.85
 11
120.3
 21
69.85
  0
LINE
  8
0
 10
120.3
 20
69.85
 11
120.3
 21
0
  0
LINE
  8
0
 10
120.3
 20
0
 11
143.16
 21
0
  0
LINE
  8
0
 10
143.16
 20
0
 11
143.16
 21
-3
  0
LINE
  8
0
 10
143.16
 20
-3
 11
166.02
 21
-3
  0
LINE
  8
0
 10
166.02
 20
-3
 11
166.02
 21
0
  0
LINE
  8
0
 10
127
 20
-6
 11
0
 21
-6
  0
LINE
  8
0
 10
0
 20
-6
 11
0
 21
-120.3
  0
LINE
  8
0
 10
0
 20
-120.3
 11
127
 21
-120.3
  0
LINE
  8
0
 10
127
 20
-120.3
 11
127
 21
-6
  0
LINE
  8
0
 10
119.297
 20
-51.8216
 11
119.297
 21
-28.7584
  0
LINE
  8
0
 10
119.297
 20
-28.7584
 11
122.5
 21
-28.7584
  0
LINE
  8
0
 10
122.5
 20
-28.7584
 11
122.5
 21
-51.8216
  0
LINE
  8
0
 10
122.5
 20
-51.8216
 11
119.297
 21
-51.8216
  0
LINE
  8
0
 10
4.2968
 20
-51.8216
 11
4.2968
 21
-28.7584
  0
LINE
  8
0
 10
4.2968
 20
-28.7584
 11
7.5
 21
-28.7584
  0
LINE
  8
0
 10
7.5
 20
-28.7584
 11
7.5
 21
-51.8216
  0
LINE
  8
0
 10
7.5
 20
-51.8216
 11
4.2968
 21
-51.8216
  0
LINE
  8
0
 10
119.297
 20
-97.5416
 11
119.297
 21
-74.4784
  0
LINE
  8
0
 10
119.297
 20
-74.4784
 11
122.5
 21
-74.4784
  0
LINE
  8
0
 10
122.5
 20
-74.4784
 11
122.5
 21
-97.5416
  0
LINE
  8
0
 10
122.5
 20
-97.5416
 11
119.297
 21
-97.5416
  0
LINE
  8
0
 10
4.2968
 20
-97.5416
 11
4.2968
 21
-74.4784
  0
LINE
  8
0
 10
4.2968
 20
-74.4784
 11
7.5
 21
-74.4784
  0
LINE
  8
0
 10
7.5
 20
-74.4784
 11
7.5
 21
-97.5416
  0
LINE
  8
0
 10
7.5
 20
-97.5416
 11
4.2968
 21
-97.5416
  0
LINE
  8
0
 10
245
 20
-6
 11
133
 21
-6
  0
LINE
  8
0
 10
133
 20
-6
 11
133
 21
-25.05
  0
LINE
  8
0
 10
133
 20
-25.05
 11
245
 21
-25.05
  0
LINE
  8
0
 10
245
 20
-25.05
 11
245
 21
-6
  0
LINE
  8
0
 10
245
 20
-31.05
 11
133
 21
-31.05
  0
LINE
  8
0
 10
133
 20
-31.05
 11
133
 21
-50.1
  0
LINE
  8
0
 10
133
 20
-50.1
 11
245
 21
-50.1
  0
LINE
  8
0
 10
245
 20
-50.1
 11
245
 21
-31.05
  0
ENDSEC
  0
SECTION
  2
OBJECTS
  0
DICTIONARY
  0
ENDSEC
  0
EOF
