  0
SECTION
  2
BLOCKS
  0
ENDSEC
  0
SECTION
  2
ENTITIES
  0
LINE
  8
0
 10
45.72
 20
0
 11
68.58
 21
0
  0
LINE
  8
0
 10
68.58
 20
0
 11
68.58
 21
-3
  0
LINE
  8
0
 10
68.58
 20
-3
 11
91.44
 21
-3
  0
LINE
  8
0
 10
91.44
 20
-3
 11
91.44
 21
0
  0
LINE
  8
0
 10
91.44
 20
0
 11
114.3
 21
0
  0
LINE
  8
0
 10
114.3
 20
0
 11
114.3
 21
95.25
  0
LINE
  8
0
 10
114.3
 20
95.25
 11
89.2138
 21
95.25
  0
LINE
  8
0
 10
89.2138
 20
95.25
 11
99.7781
 21
22.4725
  0
LINE
  8
0
 10
99.7781
 20
22.4725
 11
76.2
 21
19.05
  0
LINE
  8
0
 10
76.2
 20
19.05
 11
65.1389
 21
95.25
  0
LINE
  8
0
 10
65.1389
 20
95.25
 11
51.6224
 21
95.25
  0
LINE
  8
0
 10
51.6224
 20
95.25
 11
62.4382
 21
20.7394
  0
LINE
  8
0
 10
62.4382
 20
20.7394
 11
50.8
 21
19.05
  0
LINE
  8
0
 10
50.8
 20
19.05
 11
39.7389
 21
95.25
  0
LINE
  8
0
 10
39.7389
 20
95.25
 11
0
 21
95.25
  0
LINE
  8
0
 10
0
 20
95.25
 11
0
 21
0
  0
LINE
  8
0
 10
0
 20
0
 11
22.86
 21
0
  0
LINE
  8
0
 10
22.86
 20
0
 11
22.86
 21
-3
  0
LINE
  8
0
 10
22.86
 20
-3
 11
45.72
 21
-3
  0
LINE
  8
0
 10
45.72
 20
-3
 11
45.72
 21
0
  0
LINE
  8
0
 10
166.02
 20
0
 11
188.88
 21
0
  0
LINE
  8
0
 10
188.88
 20
0
 11
188.88
 21
-3
  0
LINE
  8
0
 10
188.88
 20
-3
 11
211.74
 21
-3
  0
LINE
  8
0
 10
211.74
 20
-3
 11
211.74
 21
0
  0
LINE
  8
0
 10
211.74
 20
0
 11
234.6
 21
0
  0
LINE
  8
0
 10
234.6
 20
0
 11
234.6
 21
95.25
  0
LINE
  8
0
 10
234.6
 20
95.25
 11
209.514
 21
95.25
  0
LINE
  8
0
 10
209.514
 20
95.25
 11
220.078
 21
22.4725
  0
LINE
  8
0
 10
220.078
 20
22.4725
 11
196.5
 21
19.05
  0
LINE
  8
0
 10
196.5
 20
19.05
 11
185.439
 21
95.25
  0
LINE
  8
0
 10
185.439
 20
95.25
 11
171.922
 21
95.25
  0
LINE
  8
0
 10
171.922
 20
95.25
 11
182.738
 21
20.7394
  0
LINE
  8
0
 10
182.738
 20
20.7394
 11
171.1
 21
19.05
  0
LINE
  8
0
 10
171.1
 20
19.05
 11
160.039
 21
95.25
  0
LINE
  8
0
 10
160.039
 20
95.25
 11
120.3
 21
95.25
  0
LINE
  8
0
 10
120.3
 20
95.25
 11
120.3
 21
0
  0
LINE
  8
0
 10
120.3
 20
0
 11
143.16
 21
0
  0
LINE
  8
0
 10
143.16
 20
0
 11
143.16
 21
-3
  0
LINE
  8
0
 10
143.16
 20
-3
 11
166.02
 21
-3
  0
LINE
  8
0
 10
166.02
 20
-3
 11
166.02
 21
0
  0
LINE
  8
0
 10
152.4
 20
-6
 11
0
 21
-6
  0
LINE
  8
0
 10
0
 20
-6
 11
0
 21
-120.3
  0
LINE
  8
0
 10
0
 20
-120.3
 11
152.4
 21
-120.3
  0
LINE
  8
0
 10
152.4
 20
-120.3
 11
152.4
 21
-6
  0
LINE
  8
0
 10
146.197
 20
-51.8216
 11
146.197
 21
-28.7584
  0
LINE
  8
0
 10
146.197
 20
-28.7584
 11
149.4
 21
-28.7584
  0
LINE
  8
0
 10
149.4
 20
-28.7584
 11
149.4
 21
-51.8216
  0
LINE
  8
0
 10
149.4
 20
-51.8216
 11
146.197
 21
-51.8216
  0
LINE
  8
0
 10
2.7968
 20
-51.8216
 11
2.7968
 21
-28.7584
  0
LINE
  8
0
 10
2.7968
 20
-28.7584
 11
6
 21
-28.7584
  0
LINE
  8
0
 10
6
 20
-28.7584
 11
6
 21
-51.8216
  0
LINE
  8
0
 10
6
 20
-51.8216
 11
2.7968
 21
-51.8216
  0
LINE
  8
0
 10
146.197
 20
-97.5416
 11
146.197
 21
-74.4784
  0
LINE
  8
0
 10
146.197
 20
-74.4784
 11
149.4
 21
-74.4784
  0
LINE
  8
0
 10
149.4
 20
-74.4784
 11
149.4
 21
-97.5416
  0
LINE
  8
0
 10
149.4
 20
-97.5416
 11
146.197
 21
-97.5416
  0
LINE
  8
0
 10
2.7968
 20
-97.5416
 11
2.7968
 21
-74.4784
  0
LINE
  8
0
 10
2.7968
 20
-74.4784
 11
6
 21
-74.4784
  0
LINE
  8
0
 10
6
 20
-74.4784
 11
6
 21
-97.5416
  0
LINE
  8
0
 10
6
 20
-97.5416
 11
2.7968
 21
-97.5416
  0
ENDSEC
  0
SECTION
  2
OBJECTS
  0
DICTIONARY
  0
ENDSEC
  0
EOF
