  0
SECTION
  2
BLOCKS
  0
ENDSEC
  0
SECTION
  2
ENTITIES
  0
LINE
  8
0
 10
45.72
 20
0
 11
68.58
 21
0
  0
LINE
  8
0
 10
68.58
 20
0
 11
68.58
 21
-3
  0
LINE
  8
0
 10
68.58
 20
-3
 11
91.44
 21
-3
  0
LINE
  8
0
 10
91.44
 20
-3
 11
91.44
 21
0
  0
LINE
  8
0
 10
91.44
 20
0
 11
114.3
 21
0
  0
LINE
  8
0
 10
114.3
 20
0
 11
114.3
 21
82.55
  0
LINE
  8
0
 10
114.3
 20
82.55
 11
91.3149
 21
82.55
  0
LINE
  8
0
 10
91.3149
 20
82.55
 11
99.7922
 21
22.3736
  0
LINE
  8
0
 10
99.7922
 20
22.3736
 11
76.2
 21
19.05
  0
LINE
  8
0
 10
76.2
 20
19.05
 11
67.2544
 21
82.55
  0
LINE
  8
0
 10
67.2544
 20
82.55
 11
53.7308
 21
82.55
  0
LINE
  8
0
 10
53.7308
 20
82.55
 11
62.4452
 21
20.6905
  0
LINE
  8
0
 10
62.4452
 20
20.6905
 11
50.8
 21
19.05
  0
LINE
  8
0
 10
50.8
 20
19.05
 11
41.8544
 21
82.55
  0
LINE
  8
0
 10
41.8544
 20
82.55
 11
0
 21
82.55
  0
LINE
  8
0
 10
0
 20
82.55
 11
0
 21
0
  0
LINE
  8
0
 10
0
 20
0
 11
22.86
 21
0
  0
LINE
  8
0
 10
22.86
 20
0
 11
22.86
 21
-3
  0
LINE
  8
0
 10
22.86
 20
-3
 11
45.72
 21
-3
  0
LINE
  8
0
 10
45.72
 20
-3
 11
45.72
 21
0
  0
LINE
  8
0
 10
169.02
 20
0
 11
191.88
 21
0
  0
LINE
  8
0
 10
191.88
 20
0
 11
191.88
 21
-3
  0
LINE
  8
0
 10
191.88
 20
-3
 11
214.74
 21
-3
  0
LINE
  8
0
 10
214.74
 20
-3
 11
214.74
 21
0
  0
LINE
  8
0
 10
214.74
 20
0
 11
237.6
 21
0
  0
LINE
  8
0
 10
237.6
 20
0
 11
237.6
 21
82.55
  0
LINE
  8
0
 10
237.6
 20
82.55
 11
214.615
 21
82.55
  0
LINE
  8
0
 10
214.615
 20
82.55
 11
223.092
 21
22.3736
  0
LINE
  8
0
 10
223.092
 20
22.3736
 11
199.5
 21
19.05
  0
LINE
  8
0
 10
199.5
 20
19.05
 11
190.554
 21
82.55
  0
LINE
  8
0
 10
190.554
 20
82.55
 11
177.031
 21
82.55
  0
LINE
  8
0
 10
177.031
 20
82.55
 11
185.745
 21
20.6905
  0
LINE
  8
0
 10
185.745
 20
20.6905
 11
174.1
 21
19.05
  0
LINE
  8
0
 10
174.1
 20
19.05
 11
165.154
 21
82.55
  0
LINE
  8
0
 10
165.154
 20
82.55
 11
123.3
 21
82.55
  0
LINE
  8
0
 10
123.3
 20
82.55
 11
123.3
 21
0
  0
LINE
  8
0
 10
123.3
 20
0
 11
146.16
 21
0
  0
LINE
  8
0
 10
146.16
 20
0
 11
146.16
 21
-3
  0
LINE
  8
0
 10
146.16
 20
-3
 11
169.02
 21
-3
  0
LINE
  8
0
 10
169.02
 20
-3
 11
169.02
 21
0
  0
LINE
  8
0
 10
203.2
 20
-9
 11
0
 21
-9
  0
LINE
  8
0
 10
0
 20
-9
 11
0
 21
-123.3
  0
LINE
  8
0
 10
0
 20
-123.3
 11
203.2
 21
-123.3
  0
LINE
  8
0
 10
203.2
 20
-123.3
 11
203.2
 21
-9
  0
LINE
  8
0
 10
120.318
 20
-18.1016
 11
120.318
 21
-14.8984
  0
LINE
  8
0
 10
120.318
 20
-14.8984
 11
158.162
 21
-14.8984
  0
LINE
  8
0
 10
158.162
 20
-14.8984
 11
158.162
 21
-18.1016
  0
LINE
  8
0
 10
158.162
 20
-18.1016
 11
120.318
 21
-18.1016
  0
LINE
  8
0
 10
45.0384
 20
-18.1016
 11
45.0384
 21
-14.8984
  0
LINE
  8
0
 10
45.0384
 20
-14.8984
 11
82.8816
 21
-14.8984
  0
LINE
  8
0
 10
82.8816
 20
-14.8984
 11
82.8816
 21
-18.1016
  0
LINE
  8
0
 10
82.8816
 20
-18.1016
 11
45.0384
 21
-18.1016
  0
LINE
  8
0
 10
4.39839
 20
-54.8216
 11
4.39839
 21
-31.7584
  0
LINE
  8
0
 10
4.39839
 20
-31.7584
 11
7.60159
 21
-31.7584
  0
LINE
  8
0
 10
7.60159
 20
-31.7584
 11
7.60159
 21
-54.8216
  0
LINE
  8
0
 10
7.60159
 20
-54.8216
 11
4.39839
 21
-54.8216
  0
LINE
  8
0
 10
195.598
 20
-54.8216
 11
195.598
 21
-31.7584
  0
LINE
  8
0
 10
195.598
 20
-31.7584
 11
198.802
 21
-31.7584
  0
LINE
  8
0
 10
198.802
 20
-31.7584
 11
198.802
 21
-54.8216
  0
LINE
  8
0
 10
198.802
 20
-54.8216
 11
195.598
 21
-54.8216
  0
LINE
  8
0
 10
195.598
 20
-100.542
 11
195.598
 21
-77.4784
  0
LINE
  8
0
 10
195.598
 20
-77.4784
 11
198.802
 21
-77.4784
  0
LINE
  8
0
 10
198.802
 20
-77.4784
 11
198.802
 21
-100.542
  0
LINE
  8
0
 10
198.802
 20
-100.542
 11
195.598
 21
-100.542
  0
LINE
  8
0
 10
4.39839
 20
-100.542
 11
4.39839
 21
-77.4784
  0
LINE
  8
0
 10
4.39839
 20
-77.4784
 11
7.60159
 21
-77.4784
  0
LINE
  8
0
 10
7.60159
 20
-77.4784
 11
7.60159
 21
-100.542
  0
LINE
  8
0
 10
7.60159
 20
-100.542
 11
4.39839
 21
-100.542
  0
LINE
  8
0
 10
120.318
 20
-120.402
 11
120.318
 21
-117.198
  0
LINE
  8
0
 10
120.318
 20
-117.198
 11
158.162
 21
-117.198
  0
LINE
  8
0
 10
158.162
 20
-117.198
 11
158.162
 21
-120.402
  0
LINE
  8
0
 10
158.162
 20
-120.402
 11
120.318
 21
-120.402
  0
LINE
  8
0
 10
45.0384
 20
-120.402
 11
45.0384
 21
-117.198
  0
LINE
  8
0
 10
45.0384
 20
-117.198
 11
82.8816
 21
-117.198
  0
LINE
  8
0
 10
82.8816
 20
-117.198
 11
82.8816
 21
-120.402
  0
LINE
  8
0
 10
82.8816
 20
-120.402
 11
45.0384
 21
-120.402
  0
LINE
  8
0
 10
195.7
 20
-135.25
 11
158.06
 21
-135.25
  0
LINE
  8
0
 10
158.06
 20
-135.25
 11
158.06
 21
-132.25
  0
LINE
  8
0
 10
158.06
 20
-132.25
 11
120.42
 21
-132.25
  0
LINE
  8
0
 10
120.42
 20
-132.25
 11
120.42
 21
-135.25
  0
LINE
  8
0
 10
120.42
 20
-135.25
 11
82.78
 21
-135.25
  0
LINE
  8
0
 10
82.78
 20
-135.25
 11
82.78
 21
-132.25
  0
LINE
  8
0
 10
82.78
 20
-132.25
 11
45.14
 21
-132.25
  0
LINE
  8
0
 10
45.14
 20
-132.25
 11
45.14
 21
-135.25
  0
LINE
  8
0
 10
45.14
 20
-135.25
 11
7.5
 21
-135.25
  0
LINE
  8
0
 10
7.5
 20
-135.25
 11
7.5
 21
-154.3
  0
LINE
  8
0
 10
7.5
 20
-154.3
 11
195.7
 21
-154.3
  0
LINE
  8
0
 10
195.7
 20
-154.3
 11
195.7
 21
-135.25
  0
LINE
  8
0
 10
195.7
 20
-163.3
 11
158.06
 21
-163.3
  0
LINE
  8
0
 10
158.06
 20
-163.3
 11
158.06
 21
-160.3
  0
LINE
  8
0
 10
158.06
 20
-160.3
 11
120.42
 21
-160.3
  0
LINE
  8
0
 10
120.42
 20
-160.3
 11
120.42
 21
-163.3
  0
LINE
  8
0
 10
120.42
 20
-163.3
 11
82.78
 21
-163.3
  0
LINE
  8
0
 10
82.78
 20
-163.3
 11
82.78
 21
-160.3
  0
LINE
  8
0
 10
82.78
 20
-160.3
 11
45.14
 21
-160.3
  0
LINE
  8
0
 10
45.14
 20
-160.3
 11
45.14
 21
-163.3
  0
LINE
  8
0
 10
45.14
 20
-163.3
 11
7.5
 21
-163.3
  0
LINE
  8
0
 10
7.5
 20
-163.3
 11
7.5
 21
-182.35
  0
LINE
  8
0
 10
7.5
 20
-182.35
 11
195.7
 21
-182.35
  0
LINE
  8
0
 10
195.7
 20
-182.35
 11
195.7
 21
-163.3
  0
ENDSEC
  0
SECTION
  2
OBJECTS
  0
DICTIONARY
  0
ENDSEC
  0
EOF
